<svg version="1.1" id="sheep" xmlns="http://www.w3.org/2000/svg" xmlns:xlink="http://www.w3.org/1999/xlink" x="0px" y="0px"
	 viewBox="0 0 300 300" style="enable-background:new 0 0 300 300;" xml:space="preserve">
<style type="text/css">
	.st0{fill:currentColor;}
</style>
<g>
	<path class="st0" d="M297.96,159.14c-0.59-0.57-1.19-1.65-1.76-1.63c-2.3,0.08-4.58,0.5-6.87,0.8c0.03,0.41,0.06,0.83,0.09,1.24
		c2.89-0.18,5.78-0.35,8.66-0.53c-2.03,5.08-3.79,5.99-11.5,5.86c0.38-0.67,0.69-1.23,1.15-2.03c-2.14,0-4.1,0.06-6.05-0.02
		c-1.91-0.08-3.82-0.29-5.73-0.44c0.02-0.18,0.04-0.36,0.07-0.55c3-0.35,6.01-0.71,9.03-1.06c-5.1-0.65-9.98-1.27-14.79-1.88
		c0.59,0.88,1.24,1.86,1.94,2.91c-1.17,0.51-2.09,0.91-3,1.32c0.01,0.26,0.01,0.52,0.02,0.78c2.07,0.46,4.14,0.91,6.26,1.38
		c-0.38,1.26-0.71,2.34-1.05,3.46c3.91,0.82,7.5,2.8,11.43,0.05c-0.91-0.66-1.63-1.18-2.62-1.89c10.15,2.05,16.09-0.62,16.77-8.71
		C299.28,158.51,298.62,158.83,297.96,159.14z M65.92,116.89c-0.66-0.31-1.4-0.97-1.96-0.84c-1.11,0.25-2.11,0.95-3.68,1.71
		c0-2.52,0-4.35,0-6.18c-0.2-0.06-0.4-0.12-0.59-0.18c-1,1.91-1.99,3.83-2.99,5.74c0.37-0.09,0.74-0.17,1.11-0.26
		c0.91,1.23,1.82,2.45,2.4,3.23c1.99-1.14,3.91-2.24,5.84-3.34c-1.02,2.1-1.55,5.37-3.17,6.04c-3.02,1.26-3.18,3.33-3.87,6.06
		c2.15-2.14,3.96-3.95,6.13-6.11c1.66,4.4-2.92,5.41-2.85,7.05c0.14,3.46-3.2,3.33-3.74,5.85c2.42-1.08,4.49-2.65,6.7-4
		c0.97-0.59,2.2-0.87,3.34-0.97c0.31-0.03,1.08,1.12,1.03,1.68c-0.37,4.09-0.79,8.19-1.43,12.24c-0.15,0.97-1.2,1.8-1.83,2.7
		c-0.23-0.13-0.45-0.27-0.68-0.4c0.45-3.54,0.91-7.08,1.36-10.61c-0.27-0.03-0.54-0.06-0.81-0.09c-2.08,3.49-4.16,6.99-6.54,10.98
		c-0.97-1.86-1.57-3.03-2.36-4.53c-5,6.12-7.89,12.37-5.05,20.17c0.7,0,1.76,0,3.35,0c-1.58,1.8-2.81,3.21-4.09,4.67
		c-6.36-7.65-8.89-17.19-5.86-22.76c0.39,3.85,0.73,7.12,1.06,10.4c0.4-0.02,0.81-0.04,1.21-0.06c0-4.12,0-8.23,0-12.71
		c1.46,0.65,2.26,1.01,3.46,1.54c-0.31-2.05-0.54-3.64-0.84-5.67c2.17,1.18,3.67,1.99,5.17,2.81c0.33-0.22,0.67-0.45,1-0.67
		c-7.94-6.18-8.9-13.34-3.26-21.17c-1.14-0.49-1.8-0.77-2.34-1c0.41-1.75,0.74-3.15,1.08-4.55c-0.29-0.11-0.59-0.21-0.88-0.32
		c-0.49,1.02-1.3,2.01-1.41,3.07c-0.51,4.55-1.33,9.16-1.05,13.68c0.26,4.25-1.1,7.49-3.44,10.6c-1.28-6.45-2.55-12.83-3.82-19.21
		c-0.36,2.25,0.14,4.38,0.31,6.53c0.47,5.95,1.47,11.97,0.99,17.86c-0.51,6.14-2.61,12.15-3.78,18.26
		c-0.36,1.89-0.02,3.92,0.05,5.88c0.04,0.98,0.6,2.11,0.26,2.9c-2.31,5.42-2.21,10.9-1.05,16.56c0.52,2.53,0.44,5.21,0.42,7.82
		c-0.01,1.27-0.82,2.56-0.73,3.8c0.54,7.39,4.13,13.75,7.13,20.29c0.34,0.74,0.96,1.36,1.53,2.14c3.5-4.54-1.47-7.71-1.55-11.7
		c0.91,0.25,1.63,0.45,2.59,0.72c-1.52-3.53-2.89-6.7-4.25-9.88c0.27-0.12,0.54-0.25,0.81-0.37c0.94,1.22,1.89,2.43,2.83,3.65
		c0.17-0.09,0.35-0.18,0.52-0.28c-0.95-2.34-1.91-4.67-3.08-7.55c5.51,4.4,6.53,8.99,2.21,11.78c4.87,3.73,9.04,7.9,9.84,14.09
		c1.72,0,3.02,0,4.31,0c-0.47-3.84,0.15-7.9-3.34-10.7c-0.32-0.26-0.4-0.91-0.47-1.39c-1.04-7.46,1.66-14.23,3.81-21.13
		c0.58-1.85-0.02-4.24,0.91-5.78c2.59-4.31,3.84-8.71,2.47-14.01c4.88,0.62,6.01-1.84,6.29-5.88c0.32-4.4,1.9-8.46,5.88-11.21
		c2-1.38,4.15-2.97,5.33-4.99c1.64-2.79,2.44-6.07,3.95-10.1c3.2,3.07,6.21,5.95,9.18,8.8c-0.19,0.25,0.17-0.22,0.33-0.44
		c1.03,1.36,1.7,2.97,2.91,3.71c4.75,2.91,4.85,2.82,3.35,8.25c-0.63,2.29-1.64,4.47-2.2,6.77c-0.41,1.65-0.78,3.5-0.44,5.11
		c1.18,5.63,2.51,11.24,4.08,16.77c2.44,8.53,5.31,16.93,7.59,25.49c0.67,2.51,1.47,4.38,3.73,5.61c2.28,1.24,4.79,2.29,4.38,5.72
		c-0.1,0.8,0.7,1.71,1.08,2.57c0.38-0.35,0.75-0.69,1.13-1.04c-0.62-2-1.24-4.01-2.1-6.74c1.14,1.02,1.59,1.43,2.38,2.13
		c-0.66-4.56-1.24-8.57-1.84-12.71c-0.64,0.84-1.25,1.64-2.01,2.64c-0.98-4.22,1.15-8.06,5.89-11.13c2.13,1.65,0.97,5.99,4.92,6.3
		c0.05,0-0.01,1.89-0.09,2.89c-0.03,0.38-0.5,0.85-0.39,1.11c1.47,3.5,3.01,6.98,4.53,10.46c1.23-7.58-1.81-14.03-5.42-20.34
		c0.28-0.12,0.56-0.24,0.85-0.36c0.53,0.68,1.05,1.36,1.13,1.46c-0.46-6.32-0.95-13.17-1.45-20.02c0.1-1.47-2.57-2.76,0.95-4.3
		c-4.41-1.76-1.12-5.51-2.64-7.89c-1-0.05-2.03-0.1-3.36-0.16c5.15-4.69,5.15-4.69,2.4-5.66c0.75-1.16,1.48-2.3,2.84-4.41
		c0.67,2.28,1.14,3.74,1.52,5.22c0.4,1.56,0.2,3.58,1.13,4.66c4.02,4.69,5.45,10.27,6.38,16.13c0.19,1.18,0.8,2.44,1.58,3.35
		c0.75,0.87,1.97,1.33,2.99,1.96c0.19-0.23,0.39-0.47,0.58-0.7c-0.44-0.79-0.89-1.57-1.33-2.36c0.15-0.12,0.31-0.23,0.46-0.35
		c0.99,1.15,1.98,2.3,2.95,3.42c1.28-0.3,2.65-0.63,4.03-0.95c0.11,0.51,0.22,1.02,0.33,1.53c-2.51,0.52-5.01,1.04-7.54,1.56
		c4.26,3.37,3.3,12.99,13.65,10.11c-3.88,5.45-7.13-0.37-9.38,0.65c3.34,6.45,6.69,12.91,10.08,19.44c0.28-0.17-0.29,0.18-0.87,0.53
		c1.11,1.44,2.11,2.68,3.04,3.97c0.78,1.08,1.27,2.52,2.28,3.27c1.27,0.94,3.07,1.13,4.4,2.02c0.86,0.58,1.27,1.82,1.88,2.76
		c-0.23,0.08-0.46,0.15-0.7,0.23c-2.02-1.2-4.05-2.4-6.85-4.05c0.95,2.94,1.51,4.64,2.36,7.27c-5.1-3.34-8.67-7.45-14.57-7.52
		c1.13,3.12,2.74,5.85,4.23,8.64c1.68,3.16,4.71,5.99,2.38,10.8c1.68-0.21,3.37,0.06,4.04-0.64c0.73-0.78,0.9-2.55,0.61-3.71
		c-0.55-2.2-1.61-4.27-2.46-6.4c4.88,3.6,9.01,7.75,13.29,11.73c1.4,1.3,3.2,2.15,4.82,3.21c0.29-0.33,0.57-0.67,0.86-1
		c-1.17-5.61-9.12-7.95-7.43-15.34c1.08,2.57,2.01,4.8,3.07,7.34c0.8-0.93,1.31-1.52,1.77-2.05c0.94,0.69,1.71,1.26,2.24,1.65
		c1.76-0.88,3.22-1.6,4.71-2.34c-0.42-1.92-0.87-3.94-1.31-5.97c0.42-0.14,0.83-0.28,1.25-0.42c2.01,3.29,4.03,6.58,6.04,9.87
		c0.18-0.09,0.36-0.19,0.54-0.28c-0.34-1.08-0.68-2.16-1.02-3.25c0.27-0.09,0.54-0.18,0.82-0.27c0.65,2.05,1.31,4.1,2.04,6.38
		c1.01-0.84,1.74-1.45,2.99-2.5c-9.89-14.23-8.85-30.62-8.95-46.81c0.56,0.98,0.78,2.02,1.01,3.07c0.24,1.08,0.47,2.16,0.71,3.23
		c0.19-0.05,0.37-0.09,0.56-0.14c0.41-2.35,0.82-4.71,1.26-7.21c-1.81-1.62-3.88-3.46-5.95-5.31c0.15-0.19,0.3-0.38,0.46-0.57
		c1.83,1.18,3.66,2.37,5.66,3.66c1.6-6.23,3.13-12.18,4.65-18.1c2.29,0.72,4.81,0.98,6.71,2.21c4.12,2.67,10.05,3.68,10.5,10.15
		c4.59-3.96,5.07-5.59,2.5-6.86c3.53-4.24,7.86-7.75,14.61-8.47c-1.71-1.09-2.54-1.62-3.36-2.15c0.07-0.21,0.14-0.42,0.21-0.63
		c1.72,0.2,3.43,0.4,5.74,0.67c-0.83-0.94-1.24-1.41-1.77-2.02c4.6-0.13,9.38-4.58,13.21,2.37c0.43-4.23-0.72-6.13-4.19-5.91
		c-1.85,0.12-3.68,0.6-5.53,0.83c-1.26,0.16-2.55,0.16-4.07,0.24c2.36-5.38,2.33-5.31,7.37-2.99c1,0.46,2.32,0.21,3.49,0.29
		c-0.39-0.97-0.77-1.94-1.28-3.2c1.43-1.79,3.01-3.77,4.72-5.91c-0.76-0.34-1.86-0.83-2.5-1.12c-2.12,2.3-3.63,5.23-5.89,6.03
		c-2.54,0.9-5.77-0.12-8.69-0.3c-0.03-0.32-0.06-0.63-0.1-0.95c1.56-0.41,3.12-0.83,5.12-1.35c-1.07-0.98-1.82-1.66-2.42-2.21
		c0.95-1.02,1.81-1.93,2.66-2.85c-0.18-0.34-0.36-0.68-0.55-1.02c-1.66,0.48-3.41,0.8-4.89,1.6c-0.28,0.15,0.49,2.24,0.91,3.98
		c-2.7,0-5.37,0-8,0c5.14-8.56,6.84-10.87,13.22-7.88c1.24-1.33,2.54-2.72,3.83-4.1c-0.15-0.19-0.31-0.38-0.46-0.57
		c-6.61,1.79-13.22,3.59-19.83,5.38c-0.19-0.18-0.38-0.36-0.57-0.54c3.7-2.84,7.4-5.68,11.1-8.52c-1.21-0.41-2.15-0.27-3.07-0.06
		c-2.23,0.5-4.06,3.42-6.88,0.95c-0.29-0.25-3.36,1.57-3.27,2.17c0.51,3.73-2.4,4.06-4.88,6.32c0.65-3.24,1.07-5.37,1.5-7.5
		c-0.37-0.11-0.75-0.21-1.12-0.32c-0.84,2.14-2.29,4.26-2.39,6.43c-0.18,4.03-2.18,2.81-3.6,2.27c-0.85,1.01-1.5,2.46-2.2,2.49
		c-2.09,0.07-4.2-0.42-7-0.78c3.65-2.45,7.84-3.75,8.45-6.02c1.05-3.9,3.88-5.49,6.17-7.89c0.6-0.63,1.32-1.15,1.95-1.76
		c0.52-0.51,0.99-1.08,1.48-1.63c-0.29-0.29-0.58-0.57-0.87-0.86c-3.08,2.95-6.15,5.92-9.26,8.84c-2.51,2.35-4.99,4.76-7.69,6.89
		c-0.79,0.63-2.29,0.36-4.18,0.59c1.35-2.42,2.34-4.19,3.66-6.53c0.41,1.61,0.62,2.47,0.71,2.82c2.97-6.2,6.02-12.57,9.07-18.95
		c-0.29-0.17-0.58-0.34-0.87-0.51c-5.23,8.06-10.47,16.12-15.7,24.18c-0.3-0.18-0.6-0.37-0.9-0.55c2.99-7.85,5.59-15.88,11.56-22.32
		c-6.78,3.59-7.66,11.07-11.98,16.46c0.07-3.49,0.36-6.93,1.56-10.02c1.2-3.09,3.31-5.82,5.02-8.71c-4.85,3.23-8.32,7.15-9.04,13.17
		c-0.58,4.88-1.96,9.66-3.03,14.7c-3.66-1.91-2.52-4.29-1.63-6.65c0.5-1.34,1.71-3.14,1.25-3.99c-2.98-5.44-2.89-11.21-2.55-17.09
		c0.08-1.49-0.12-3-0.19-4.5c-0.57,0.01-1.15,0.02-1.72,0.02c0,4.13,0.07,8.26-0.03,12.38c-0.05,2.16-0.12,4.4-0.72,6.45
		c-0.76,2.65-3.37,4.82-1.2,8.07c0.66,0.98,0.1,2.77,0.1,5.06c-1.07-1.9-1.69-3.01-2.32-4.11c-0.37,0.04-0.75,0.09-1.12,0.13
		c0,3.4,0,6.79,0,10.19c-4.15-10.13-1.71-20.37-1.07-30.56c-4.09,5.73-2.2,12.42-3.16,19.32c-4.07-4.59-2.67-9.73-2.2-13.81
		c0.75-6.51,3.44-12.84,5.65-19.12c0.9-2.57,2.68-4.84,4.06-7.25c-1.16,0.24-2.17,0.73-2.75,1.54c-5.5,7.76-6.57,17.12-9.07,25.93
		c-0.91,3.19-0.79,6.68-1.13,9.9c0.61,0.11,2.65,0.35,2.64,0.49c-0.13,2.34-0.51,4.67-0.95,7.84c-1.29-1.54-1.84-2.19-2.86-3.41
		c0.17,2.96,0.29,5.11,0.42,7.38c-2.21-0.84-4.1-1.56-5.99-2.28c-0.09,0.2-0.18,0.4-0.28,0.61c0.95,0.71,1.9,1.42,3.03,2.26
		c-1.2,0.46-2.08,0.8-3.05,1.17c4.44,1.54,8.6,2.99,12.76,4.44c-0.07,0.36-0.13,0.72-0.2,1.09c-0.66,0.31-1.32,0.61-2.13,0.98
		c0.99,1.43,1.85,2.67,2.97,4.29c-1.19,0.14-1.99,0.49-2.3,0.23c-2.71-2.19-6.44-4.01-7.67-6.88c-1.28-2.98-3.03-2.3-5.01-2.68
		c5.64,6.96,13.99,11.62,17.06,20.41c-5.26,1.9-1.46,7.64-4.48,10.41c-1.45-0.87-2.93-1.75-5.5-3.29c1.59-0.72,2.6-1.17,3.6-1.62
		c-0.17-0.18-0.34-0.36-0.51-0.55c-1.25,0.27-2.5,0.54-4.73,1.03c1.56-1.83,2.48-2.91,3.35-3.94c-1.02-2.14-2.02-4.22-3.44-7.18
		c0.31,2.98,0.52,4.97,0.73,6.97c-0.28,0.09-0.57,0.17-0.85,0.26c-0.64-1.06-1.28-2.12-2.05-3.39c-1.49,1.36-2.92,2.66-4.47,4.08
		c-1.38-1.01-2.71-1.76-3.76-2.8c-1.09-1.08-2.89-2.64-2.68-3.64c0.98-4.81-1.41-8.34-3.79-11.85c0.87-0.49,1.61-0.91,2.45-1.39
		c-1.4-0.79-3.23-1.26-3.34-1.99c-0.66-4.49-1.4-9.06-1.18-13.56c0.2-4.14,2.04-8.18,2.34-12.33c0.42-5.92-0.16-11.9,0.13-17.84
		c0.27-5.65,2.06-10.76,6.74-14.53c1.33-1.07,2.2-2.73,3.28-4.11c-0.21-0.17-0.42-0.35-0.63-0.52c-2.53,1.71-5.06,3.41-7.64,5.16
		c-0.28-0.26-0.77-0.71-1.45-1.33c-0.91,5.04-1.76,9.78-2.61,14.52c-0.48-0.02-0.96-0.04-1.44-0.06c-0.83-2.82-1.66-5.65-2.78-9.46
		c-1.2,4.27-2.12,7.54-3.1,11.02c-0.32-0.02-1.11-0.05-2.11-0.1c-0.14,2.44-0.26,4.67-0.39,6.91c3.7-0.08,2.34,2.39,2.58,4.06
		c-1.8-0.54-3.37-1.01-4.95-1.48c-0.1,0.35-0.21,0.7-0.31,1.04c2.9,0.73,4.13,2.6,4.67,7.9c-1.17-0.92-2.08-2.11-2.99-3.29
		c-0.93-1.21-2.71-2.45-2.66-3.62c0.21-5.51,0.91-10.99,1.43-16.43c-0.67-0.16-1.52-0.15-2-0.56c-0.35-0.3-0.21-1.17-0.29-1.78
		c-0.08-0.59-0.17-1.18-0.25-1.76c-0.45,0.03-0.9,0.06-1.34,0.1c0.43,8.83,0.87,17.66,1.31,26.71c-3.81-2.16-0.92-6.02-2.5-9.18
		c-0.41,1.16-0.71,1.89-0.94,2.65c-0.27,0.93-0.48,1.89-0.75,2.96c-3.88-3.82-4.5-6.42-2.43-10.35c0.43,1.7,0.81,3.23,1.19,4.76
		c-0.5-10.74-1.25-21.35,2.88-31.66c-0.49-0.15-0.98-0.3-1.47-0.44c-1.88,4.19-3.75,8.38-5.74,12.82
		c3.78,0.41,2.77,12.02-0.96,19.43c-1.29-3.22-3.56-6.08,0.23-9.5c-1.41,0.14-2.16,0.22-2.61,0.26c0-3.71-0.49-7.28,0.1-10.67
		c1.38-8.02,1.59-7.98,0.51-10.57c-2.23,6.7-4.37,13.1-6.76,20.26c-0.95-2.52-1.57-4.16-2.19-5.8c-0.4,0.13-0.81,0.27-1.21,0.4
		c1.74,5.74,3.49,11.48,5.23,17.23c-0.46,0.16-0.91,0.33-1.37,0.49c-1.83-4.93-5.11-9.82-5.21-14.79
		c-0.26-12.05,1.84-23.85,10.3-33.48c-8.51,6-10.01,15.42-11.27,24.53c-1.28,9.25-2.09,18.82,4.68,27.07
		c-2.49-1.66-5.62-3.38-6.13-5.67c-1.1-5.02-0.91-10.32-1.17-15.52c-0.07-1.47,0.12-2.95,0.23-5.18c-1.64,1.24-2.73,2.06-3.25,2.45
		c0.45,1.86,1.34,3.43,0.89,4.12c-1.49,2.26-0.74,4.32-0.22,6.51c0.47,1.98,0.81,3.99,1.21,5.99c-0.28,0.08-0.55,0.16-0.83,0.23
		c-0.45-1.01-0.91-2.02-1.25-2.8c-3.4,1.5-3.24-1.87-4.19-3.21c-1.31-1.86-2.13-4.05-3.16-6.1c-0.13,0.05-0.25,0.09-0.38,0.14
		c0.13,0.9,0.25,1.8,0.38,2.69c-0.26,0.08-0.53,0.15-0.79,0.23c-1.24-3.37-2.47-6.75-4.08-11.15c-0.09,6.9-0.09,6.9-2.79,9.33
		c-1.56-4.39,3.57-10.32-3.12-12.77c0,0.13,0.07,0.63-0.01,1.11c-0.17,1-0.41,1.98-0.62,2.97c-0.82-0.73-1.69-1.41-2.43-2.21
		c-0.56-0.59-0.97-1.33-1.44-2.01c-0.31,0.12-0.62,0.24-0.93,0.36c0.11,2.26,0.23,4.52,0.35,6.99c1.21-0.63,2.23-1.49,3.37-1.67
		c1.1-0.18,2.31,0.33,3.48,0.53c-0.66,1.58-1.24,3.21-2.07,4.69C67.91,117.3,66.67,116.95,65.92,116.89z M204.47,196.45
		c-0.32,0.38-0.63,0.77-0.95,1.15c1.06,0.88,2.03,2.34,3.2,2.53c3.55,0.58,7.2,0.52,10.76,1.01c1.76,0.24,3.86,0.71,5.04,1.85
		c2.48,2.41,4.24,5.55,6.71,7.98c1.88,1.85,4.42,3.02,6.59,4.59c2.79,2.02,5.51,4.14,8.32,6.25c-0.16,0.57-0.36,1.27-0.4,1.42
		c1.5,1.47,2.65,2.74,3.94,3.83c4.01,3.36,7.73,7.23,12.19,9.84c8.52,4.99,21.11-2.95,20.87-12.85c-0.21-9.13-0.81-18.25-0.81-27.38
		c0-2.66,1.18-5.48,2.39-7.95c1.43-2.94,2.58-5.72,1.38-9.82c-1.12,2.09-1.86,3.49-2.46,4.61c-1.4,0.11-2.55,0.19-3.04,0.23
		c-1.51-4.27-2.79-8.4-4.51-12.33c-0.37-0.85-3.33-1.53-3.39-1.4c-1.68,3.22-2.78,1.99-4.07-0.28c-0.4-0.7-1.42-1.03-1.63-1.17
		c-0.86,1.75-1.59,3.24-2.32,4.73c-0.55-0.09-1.11-0.18-1.66-0.27c-0.21-2.05-0.42-4.09-0.63-6.21c-1.98,2.13-4.23,4.54-6.84,7.35
		c-0.69-2.34-1.27-4.29-1.81-6.15c1.69-1.1,3.09-2.02,4.49-2.93c-0.14-0.24-0.27-0.48-0.41-0.73c-2.27,1-4.54,2.01-6.02,2.66
		c0.97,2.86,1.77,5.26,2.58,7.65c-0.42,0.33-0.85,0.65-1.27,0.98c-1.02-0.65-2.43-1.08-2.96-2.01c-0.75-1.31-0.84-2.99-1.4-5.29
		c-1.55,0.59-3.73,1.42-5.9,2.25c0.13,0.34,0.26,0.67,0.39,1.01c4.22-0.72,6.14,1.62,5.74,6.98c-1.83-1.43-3.68-2.87-6.22-4.85
		c0.61,1.99,0.94,3.09,1.38,4.54c-1.64,0.43-3.09,0.69-4.43,1.2c-1.73,0.67-3.58,1.29-5.01,2.4c-1.59,1.23-2.57,3.29-4.19,4.46
		c-2.64,1.89-5.58,3.35-8.4,4.99c0.14,0.26,0.29,0.52,0.43,0.78c6.5-3.36,13.01-6.72,19.16-9.9c-5.37,8.09-15.14,9.05-23.61,12.34
		c0.11,0.28,0.23,0.57,0.34,0.85c4.88-1.39,9.75-2.78,14.63-4.17c0.06,0.18,0.11,0.36,0.17,0.55c-2.58,1.26-5.15,2.53-7.73,3.79
		c9.01-1.22,15.17-6.3,19.32-14.29c0.33,1.19,0.65,2.42,0.18,2.99c-2.87,3.49-3.88,8.02-9.6,9.81c-4.59,1.43-8.52,4.57-13.85,3.51
		c-1.99-0.4-4.14,0.11-6.2-0.06C210.12,197.3,207.3,196.82,204.47,196.45z M68.36,234.37c1.48-0.31,2.71-0.56,3.98-0.83
		c-0.42-1.45-0.7-2.43-0.92-3.2c4.42-1.43,8.57-2.5,12.1,1.31c0.27,0.29,0.98,0.36,1.43,0.26c4.39-0.97,7.2,1.33,9.78,4.43
		c0.92,1.11,3.25,2.72,3.36,2.61c2.57-2.72,3.5,0.63,4.99,1.34c1.65,0.79,3.08,2.02,4.72,3.13c1.43-2.46,2.7-4.64,3.71-6.39
		c-2.54-1.28-4.61-2.32-6.68-3.36c-0.02,0.35-0.04,0.7-0.06,1.05c-1.08-0.06-2.17-0.13-3.36-0.2c1.69-6.48-3.17-9.57-6.01-13.7
		c0,3.51,0,7.02,0,10.99c-3.09-2.25-6.09-4.44-9.28-6.76c-0.51,0.37-1.26,0.93-2.24,1.65c-1-1.5-1.89-2.82-2.41-3.6
		c-5.31,0.72-10.3,1.4-15.9,2.17c-0.27,1.29-0.7,3.37-1.2,5.73c1.58,0,2.52,0,3.56,0C68.09,232.1,68.2,233.04,68.36,234.37z
		 M201.92,248.2c0.29,0.26,0.58,0.52,0.86,0.79c10.78-2.77,21.55-5.55,32.33-8.32c0.04-0.44,0.08-0.88,0.12-1.32
		c-1.36-0.3-2.8-1.05-4.07-0.83c-4.55,0.77-9.05,1.87-13.56,2.84c-2.56,0.55-5.12,1.11-7.83,1.69c1.47-4.15,2.71-7.64,4.15-11.67
		c-7.07,1.3-20.65,12.22-20.48,16.28c5.29-4.11,10.36-8.05,15.42-11.98c0.18,0.22,0.36,0.45,0.54,0.67
		C206.91,240.29,204.42,244.25,201.92,248.2z M73.26,107.77c0-2.53,0.12-4.69-0.03-6.84c-0.13-1.89-1.11-3.86-0.75-5.6
		c0.84-4.16,2.28-8.2,3.4-12.31c0.15-0.57-0.14-1.27-0.31-1.9c-0.2-0.77-0.91-1.73-0.66-2.24c1.24-2.49,0.86-5.97,4.3-7.22
		c0.42-0.15,0.46-1.37,0.77-2.41c-0.96,0.58-1.48,0.89-2,1.2c-0.11-0.13-0.22-0.26-0.33-0.38c1.29-1.45,2.58-2.89,3.87-4.34
		c-0.26-0.23-0.51-0.46-0.77-0.69c-1.43,1.54-3.82,2.93-4.11,4.66c-0.79,4.78-4.04,5.01-6.79,5.02c-2.14,4.88-4.82,9.1-5.75,13.67
		c-0.96,4.7-0.21,9.75-0.21,14.41c0.96,0.44,1.99,0.92,2.99,1.38c0.17-1.62,0.34-3.31,0.53-5.08c-0.67,0.17-1.38,0.34-2.39,0.59
		c0.84-5.27-1.45-11.07,4.62-14.29c0.52-0.27,0.86-1.3,0.89-1.99c0.11-2.37,0.04-4.76,0.04-7.5c1.61,0.21,2.74,0.36,3.9,0.52
		c-1.26,6.88-2.39,8.89-6.48,13.55c-0.82,0.94-1.23,3.77-0.86,3.98c3.21,1.77,2.63,4.72,2.6,7.07
		C74.07,101.77,71.63,105.56,73.26,107.77z M143.14,237.66c0-5.44,0.19-10.42-0.12-15.38c-0.09-1.4-1.6-2.71-2.46-4.07
		c-1.18,1.02-3.01,1.84-3.41,3.1c-1.26,4.03-2.87,8.28-2.64,12.35c0.17,3.16,2.8,6.24,4.56,9.22c0.24,0.4,1.86,0.07,2.81-0.06
		c1.85-0.26,3.69-0.63,6.05-1.05C148.57,238.53,145.14,238.55,143.14,237.66z M113.65,229.69c3.56,3.36,6.62,6.25,9.96,9.41
		c3.79-4.1,4.35-9.39,4.17-14.94c-1.65,3.11-3.3,6.22-5.03,9.48c-5.85-7.46-6.42-7.88-13.02-9.7c-2.57,5.45-2.17,7,2.81,10.34
		C112.84,233.05,113.12,231.9,113.65,229.69z M13,195.64c6.15,7.1,12.07,13.78,17.79,20.62c3.29,3.94,7.18,7.77,5.75,13.74
		c0,0.01,0.21,0.07,1.08,0.37c0.79-4.43,1.55-8.73,2.31-13.03c-0.31-0.08-0.62-0.15-0.93-0.23c-0.46,0.77-0.93,1.55-1.62,2.71
		C30.77,210.11,23.31,201.72,13,195.64z M207.83,104.29c-0.28,0.19-0.56,0.37-0.83,0.56c2.93,5.99,5.86,11.97,8.87,18.11
		c-1.18,0-2.45,0-3.72,0c0.57,0.64,1.46,1.22,1.39,1.62c-1.32,6.57-7.56,8.4-12.22,11.76c0.17,0.31,0.35,0.62,0.52,0.92
		c4.31-1.13,8.62-2.25,12.93-3.38c-0.05-0.27-0.1-0.54-0.16-0.8c-1.22-0.18-2.45-0.36-4.32-0.63c2.45-1.91,4.36-3.4,6.3-4.92
		c-0.72-0.68-1.22-1.14-1.84-1.74c6.56-1.91,6.36,6.32,12.32,7.06c-4.16-5.03-8.05-9.05-11.11-13.63
		C212.82,114.54,210.5,109.29,207.83,104.29z M0.05,227.07c0.07,0.57,0.14,1.15,0.21,1.72c3.69,0,7.46-0.48,11.05,0.11
		c5.71,0.94,8.85-2.27,11.81-6.13c2.17-2.84,1.5-6.5-1.58-8.98c-0.16,0.34-0.43,0.66-0.43,0.98c-0.02,3.21,1.38,7.16-4.07,7.43
		c-0.27,0.01-0.71,0.74-0.73,1.15c-0.12,2.64-2.04,2.3-3.78,2.46C8.36,226.18,4.21,226.64,0.05,227.07z M153.62,111.68
		c-0.13,3.32-1.43,5.79-3.32,8.57c-2.23,3.27-2.51,8-3.22,12.16c-0.87,5.06,0.87,8.97,5.3,12.92c-0.74-2.97-1.76-5.6-1.97-8.28
		c-0.41-5.13-2.39-10.71,1.29-15.21C154.31,118.64,154.91,115.55,153.62,111.68z M274.15,151.96c0.06-0.08,0.13-0.16,0.19-0.25
		c-2.37-0.29-4.77-0.98-7.1-0.79c-10.71,0.88-20.95,0.05-29.85-6.7c0.49,1.49,0.54,3.86,1.64,4.55c4.2,2.64,8.5,4.99,13.98,4.38
		C260.02,152.36,267.1,152.32,274.15,151.96z M112.92,49.77c4.31,0.73,7.78,1.32,12.03,2.05c-1.49,0.9-2.19,1.32-3.01,1.82
		c6.35,1.07,12.37,2.09,19.22,3.25c-2.82-1.31-5.04-2.47-7.36-3.38c-4.88-1.93-9.73-3.98-14.74-5.49c-3.84-1.16-7.91-1.56-11.88-2.3
		c-0.07,0.38-0.13,0.77-0.2,1.15c2.7,0.32,5.41,0.63,8.68,1.01C114.68,48.56,114.15,48.93,112.92,49.77z M48.08,91.94
		c-0.95,3.82-1.27,6.86-2.44,9.54c-3.61,8.24-3.64,16.41-0.17,24.56c0.3-4.39,0.6-8.92,0.96-14.21c-0.93,1.21-1.29,1.67-1.65,2.14
		c-0.22-0.07-0.44-0.14-0.66-0.21c0.46-2.59,0.92-5.17,1.4-7.91c1.11,0.33,1.87,0.56,3.14,0.94C44.4,101.83,50.57,97.51,48.08,91.94
		z M143.23,56.21c-0.16,0.27-0.32,0.55-0.48,0.82c5.99,3.11,9.81,9.71,17.5,10.57c-0.85,0.55-1.7,1.1-2.55,1.65
		c0.06,0.2,0.12,0.4,0.17,0.6c2.2-0.3,4.41-0.6,7.69-1.05C157.45,64.22,150.34,60.22,143.23,56.21z M52.72,70.42
		c2.76-4.84,10.21-5.67,10.95-12.34c0.09-0.79,1.61-1.44,2.48-2.12c0.98-0.76,2-1.49,3-2.24c-0.33-0.33-0.66-0.67-0.99-1
		C61.65,57.35,57.91,64.59,52.72,70.42z M174.54,105.04c1.83-2.2,3.84-4.61,5.82-7c-2.92,0.19-11.09,6.71-11.59,9.23
		c-0.05,0.24-0.17,0.66-0.09,0.71c0.95,0.56,1.91,1.11,2.91,1.56c0.17,0.08,0.56-0.31,1.17-0.68c-0.89-0.66-1.57-1.16-3.24-2.39
		C171.79,105.82,173.2,105.42,174.54,105.04z M83,81.21c-5.81,1.9-9.01,9.04-7.25,15.27C79.12,91.65,76.62,84.37,83,81.21z
		 M173.89,133.54c0.4,0.19,0.8,0.37,1.2,0.56c2.61-6.04,5.22-12.08,7.83-18.12C177.8,120.8,175.94,127.22,173.89,133.54z
		 M85.39,118.61c-0.67-9.12,2.19-16.21,6.77-22.75C86.45,99.77,82.8,111.4,85.39,118.61z M50.29,110.42
		c0.35,0.09,0.69,0.18,1.04,0.27c1.8-6.15,3.59-12.31,5.39-18.46c-0.47-0.13-0.95-0.25-1.42-0.38
		C53.63,98.04,51.96,104.23,50.29,110.42z M139.27,133.37c-0.43,0.22-0.86,0.44-1.28,0.66c1.5,7.5,3.03,10.47,6.03,10.92
		C142.37,140.95,140.82,137.16,139.27,133.37z M86.17,96.7c-0.29-0.09-0.59-0.18-0.88-0.26c-1.1,6.15-5.61,11.58-3.46,18.16
		C83.23,108.8,84.7,102.75,86.17,96.7z M223.92,247.6c-0.53-0.04-1.07-0.08-1.6-0.11c-0.38,1.66-0.77,3.31-1.15,4.97
		c1.63,0.15,4.08,1.05,4.74,0.32C228.46,249.96,223.99,249.67,223.92,247.6z M71.78,52.12c5.1-2.16,10.21-4.31,15.31-6.47
		C81.1,45.66,76.06,47.97,71.78,52.12z M236.3,141.79c0.22-0.29,0.45-0.58,0.67-0.87c-2.61-2.27-5.21-4.53-7.82-6.8
		C229.37,139.08,232.78,140.5,236.3,141.79z M287.02,157.19c0.05-0.44,0.09-0.88,0.14-1.32c-3.5-0.79-6.99-1.58-10.49-2.37
		c-0.1,0.54-0.2,1.08-0.3,1.62C279.92,155.81,283.47,156.5,287.02,157.19z M175.16,68.13c3.53,1.51,7.24,3.11,10.95,4.7
		C183.22,68.92,179.35,67.71,175.16,68.13z M203.69,114.86c-2.85-2.84-5.69-2.1-8.75,2.5c1.38-0.49,2.39-1.65,3.65-2.06
		C200.05,114.82,201.72,115,203.69,114.86z M226.15,157.01c0.05,0.76,0.1,1.51,0.15,2.27c1.53-0.1,3.12-0.01,4.56-0.43
		c0.39-0.11,0.32-1.77,0.47-2.71C229.6,156.43,227.87,156.72,226.15,157.01z M77.52,98.03c0.32,0.19,0.64,0.37,0.96,0.56
		c2.19-3.74,4.38-7.47,6.56-11.21c-0.35-0.2-0.71-0.41-1.06-0.61C81.83,90.52,79.68,94.27,77.52,98.03z M204.65,98.42
		c0.37-0.24,0.75-0.49,1.12-0.73c-2.24-3.22-4.49-6.44-6.73-9.65c-0.34,0.24-0.68,0.49-1.02,0.73
		C200.22,91.98,202.44,95.2,204.65,98.42z M92.82,46.38c0.02,0.28,0.04,0.57,0.07,0.85c3.75-0.21,7.5-0.41,11.25-0.62
		c-0.04-0.49-0.08-0.98-0.11-1.47C100.28,45.55,96.55,45.97,92.82,46.38z M123.31,111.64c0.31,0.19,0.62,0.38,0.94,0.57
		c1.92-2.97,3.84-5.95,5.76-8.92c-0.43-0.26-0.85-0.52-1.28-0.77C126.92,105.55,125.12,108.6,123.31,111.64z M142.51,122.44
		c-0.32-0.13-0.65-0.25-0.97-0.38c-1.02,1.81-2.04,3.62-3.48,6.17C142.12,126.99,142.12,126.99,142.51,122.44z M86.75,92.19
		c0.37,0.19,0.74,0.37,1.1,0.56c1.37-2.6,2.75-5.21,4.12-7.81c-0.46-0.23-0.91-0.47-1.37-0.7C89.32,86.88,88.04,89.54,86.75,92.19z
		 M77.28,109.46c0.31,0.01,0.62,0.02,0.92,0.02c0.19-2.71,0.38-5.42,0.57-8.14C75.89,103.77,77.18,106.69,77.28,109.46z"/>
	<path d="M65.93,116.88c0.74,0.07,1.98,0.42,2.13,0.16c0.84-1.48,1.41-3.11,2.07-4.69c-1.16-0.2-2.38-0.71-3.48-0.53
		c-1.13,0.19-2.16,1.04-3.37,1.67c-0.12-2.47-0.24-4.73-0.35-6.99c0.31-0.12,0.62-0.24,0.93-0.36c0.47,0.68,0.88,1.42,1.44,2.01
		c0.75,0.79,1.62,1.48,2.43,2.21c0.21-0.99,0.46-1.97,0.62-2.97c0.08-0.47,0.01-0.97,0.01-1.11c6.69,2.46,1.56,8.38,3.12,12.77
		c2.7-2.43,2.7-2.43,2.79-9.33c1.61,4.4,2.85,7.78,4.08,11.15c0.26-0.08,0.53-0.15,0.79-0.23c-0.13-0.9-0.25-1.8-0.38-2.69
		c0.13-0.05,0.25-0.09,0.38-0.14c1.03,2.05,1.86,4.25,3.16,6.1c0.95,1.34,0.79,4.71,4.19,3.21c0.35,0.77,0.8,1.78,1.25,2.8
		c0.28-0.08,0.55-0.16,0.83-0.23c-0.4-2-0.74-4.01-1.21-5.99c-0.52-2.19-1.27-4.25,0.22-6.51c0.45-0.69-0.45-2.26-0.89-4.12
		c0.51-0.39,1.61-1.21,3.25-2.45c-0.11,2.22-0.3,3.71-0.23,5.18c0.26,5.19,0.06,10.5,1.17,15.52c0.51,2.3,3.64,4.01,6.13,5.67
		c-6.77-8.25-5.97-17.82-4.68-27.07c1.26-9.11,2.76-18.52,11.27-24.53c-8.46,9.63-10.56,21.43-10.3,33.48
		c0.11,4.97,3.38,9.86,5.21,14.79c0.46-0.16,0.91-0.33,1.37-0.49c-1.74-5.74-3.49-11.48-5.23-17.23c0.4-0.13,0.81-0.27,1.21-0.4
		c0.62,1.64,1.24,3.28,2.19,5.8c2.39-7.16,4.52-13.56,6.76-20.26c1.07,2.59,0.87,2.55-0.51,10.57c-0.58,3.39-0.1,6.96-0.1,10.67
		c0.45-0.04,1.2-0.12,2.61-0.26c-3.79,3.42-1.53,6.28-0.23,9.5c3.73-7.41,4.75-19.03,0.96-19.43c1.99-4.44,3.86-8.63,5.74-12.82
		c0.49,0.15,0.98,0.3,1.47,0.44c-4.13,10.31-3.38,20.92-2.88,31.66c-0.38-1.53-0.77-3.06-1.19-4.76c-2.07,3.92-1.45,6.53,2.43,10.35
		c0.27-1.07,0.48-2.03,0.75-2.96c0.22-0.76,0.52-1.5,0.94-2.65c1.58,3.16-1.31,7.02,2.5,9.18c-0.44-9.06-0.88-17.89-1.31-26.71
		c0.45-0.03,0.9-0.06,1.34-0.1c0.08,0.59,0.17,1.18,0.25,1.76c0.08,0.61-0.06,1.48,0.29,1.78c0.47,0.41,1.32,0.4,2,0.56
		c-0.52,5.44-1.23,10.92-1.43,16.43c-0.04,1.17,1.73,2.41,2.66,3.62c0.91,1.18,1.82,2.37,2.99,3.29c-0.54-5.3-1.77-7.16-4.67-7.9
		c0.1-0.35,0.21-0.7,0.31-1.04c1.58,0.47,3.15,0.94,4.95,1.48c-0.24-1.67,1.12-4.15-2.58-4.06c0.13-2.24,0.25-4.47,0.39-6.91
		c1,0.05,1.79,0.09,2.11,0.1c0.98-3.48,1.9-6.75,3.1-11.02c1.12,3.81,1.95,6.64,2.78,9.46c0.48,0.02,0.96,0.04,1.44,0.06
		c0.85-4.74,1.71-9.47,2.61-14.52c0.68,0.62,1.17,1.07,1.45,1.33c2.59-1.74,5.11-3.45,7.64-5.16c0.21,0.17,0.42,0.35,0.63,0.52
		c-1.08,1.39-1.95,3.04-3.28,4.11c-4.68,3.77-6.48,8.88-6.74,14.53c-0.28,5.93,0.29,11.92-0.13,17.84
		c-0.29,4.15-2.13,8.19-2.34,12.33c-0.22,4.5,0.53,9.07,1.18,13.56c0.11,0.72,1.93,1.19,3.34,1.99c-0.84,0.48-1.58,0.9-2.45,1.39
		c2.38,3.51,4.76,7.04,3.79,11.85c-0.2,1,1.59,2.56,2.68,3.64c1.04,1.04,2.37,1.79,3.76,2.8c1.55-1.41,2.98-2.72,4.47-4.08
		c0.77,1.28,1.41,2.33,2.05,3.39c0.28-0.09,0.57-0.17,0.85-0.26c-0.21-1.99-0.42-3.99-0.73-6.97c1.41,2.95,2.42,5.04,3.44,7.18
		c-0.87,1.03-1.79,2.11-3.35,3.94c2.23-0.49,3.48-0.76,4.73-1.03c0.17,0.18,0.34,0.36,0.51,0.55c-1.01,0.45-2.01,0.91-3.6,1.62
		c2.58,1.54,4.05,2.42,5.5,3.29c3.02-2.77-0.78-8.51,4.48-10.41c-3.07-8.79-11.41-13.45-17.06-20.41c1.98,0.39,3.73-0.29,5.01,2.68
		c1.23,2.87,4.96,4.69,7.67,6.88c0.32,0.26,1.12-0.09,2.3-0.23c-1.12-1.62-1.98-2.86-2.97-4.29c0.81-0.37,1.47-0.68,2.13-0.98
		c0.07-0.36,0.13-0.72,0.2-1.09c-4.16-1.45-8.32-2.89-12.76-4.44c0.96-0.37,1.84-0.71,3.05-1.17c-1.13-0.84-2.08-1.55-3.03-2.26
		c0.09-0.2,0.18-0.4,0.28-0.61c1.89,0.72,3.78,1.44,5.99,2.28c-0.13-2.27-0.25-4.42-0.42-7.38c1.03,1.22,1.57,1.87,2.86,3.41
		c0.44-3.17,0.82-5.5,0.95-7.84c0.01-0.13-2.03-0.38-2.64-0.49c0.34-3.22,0.22-6.7,1.13-9.9c2.51-8.82,3.57-18.17,9.07-25.93
		c0.57-0.81,1.59-1.3,2.75-1.54c-1.38,2.41-3.15,4.67-4.06,7.25c-2.21,6.29-4.9,12.61-5.65,19.12c-0.47,4.08-1.87,9.23,2.2,13.81
		c0.96-6.9-0.94-13.59,3.16-19.32c-0.64,10.19-3.08,20.43,1.07,30.56c0-3.4,0-6.79,0-10.19c0.37-0.04,0.75-0.09,1.12-0.13
		c0.62,1.1,1.24,2.21,2.32,4.11c0-2.28,0.55-4.08-0.1-5.06c-2.18-3.26,0.43-5.42,1.2-8.07c0.59-2.05,0.66-4.29,0.72-6.45
		c0.1-4.13,0.03-8.26,0.03-12.38c0.57-0.01,1.15-0.02,1.72-0.02c0.07,1.5,0.28,3.01,0.19,4.5c-0.33,5.87-0.43,11.64,2.55,17.09
		c0.47,0.85-0.74,2.66-1.25,3.99c-0.89,2.36-2.03,4.73,1.63,6.65c1.07-5.04,2.45-9.83,3.03-14.7c0.72-6.02,4.19-9.94,9.04-13.17
		c-1.71,2.89-3.82,5.62-5.02,8.71c-1.2,3.09-1.49,6.54-1.56,10.02c4.32-5.39,5.2-12.87,11.98-16.46
		c-5.97,6.45-8.58,14.47-11.56,22.32c0.3,0.18,0.6,0.37,0.9,0.55c5.23-8.06,10.47-16.12,15.7-24.18c0.29,0.17,0.58,0.34,0.87,0.51
		c-3.05,6.37-6.1,12.75-9.07,18.95c-0.09-0.35-0.31-1.21-0.71-2.82c-1.31,2.35-2.3,4.11-3.66,6.53c1.89-0.23,3.38,0.03,4.18-0.59
		c2.7-2.12,5.18-4.53,7.69-6.89c3.11-2.92,6.18-5.89,9.26-8.84c0.29,0.29,0.58,0.57,0.87,0.86c-0.49,0.54-0.96,1.11-1.48,1.63
		c-0.63,0.61-1.34,1.13-1.95,1.76c-2.3,2.4-5.12,3.99-6.17,7.89c-0.61,2.26-4.8,3.57-8.45,6.02c2.8,0.36,4.91,0.85,7,0.78
		c0.7-0.02,1.35-1.47,2.2-2.49c1.42,0.54,3.42,1.76,3.6-2.27c0.1-2.18,1.55-4.29,2.39-6.43c0.37,0.11,0.75,0.21,1.12,0.32
		c-0.42,2.13-0.85,4.25-1.5,7.5c2.48-2.26,5.39-2.6,4.88-6.32c-0.08-0.6,2.98-2.42,3.27-2.17c2.81,2.46,4.65-0.45,6.88-0.95
		c0.92-0.21,1.86-0.35,3.07,0.06c-3.7,2.84-7.4,5.68-11.1,8.52c0.19,0.18,0.38,0.36,0.57,0.54c6.61-1.79,13.22-3.59,19.83-5.38
		c0.15,0.19,0.31,0.38,0.46,0.57c-1.29,1.39-2.59,2.77-3.83,4.1c-6.38-2.99-8.08-0.68-13.22,7.88c2.64,0,5.31,0,8,0
		c-0.42-1.73-1.19-3.83-0.91-3.98c1.49-0.8,3.24-1.12,4.89-1.6c0.18,0.34,0.36,0.68,0.55,1.02c-0.85,0.91-1.71,1.83-2.66,2.85
		c0.6,0.55,1.35,1.23,2.42,2.21c-1.99,0.53-3.55,0.94-5.12,1.35c0.03,0.32,0.06,0.63,0.1,0.95c2.93,0.18,6.15,1.2,8.69,0.3
		c2.26-0.8,3.77-3.74,5.89-6.03c0.65,0.29,1.74,0.78,2.5,1.12c-1.71,2.14-3.29,4.12-4.72,5.91c0.51,1.26,0.89,2.23,1.28,3.2
		c-1.17-0.08-2.49,0.17-3.49-0.29c-5.04-2.32-5.01-2.38-7.37,2.99c1.52-0.08,2.81-0.08,4.07-0.24c1.85-0.23,3.68-0.72,5.53-0.83
		c3.47-0.22,4.62,1.68,4.19,5.91c-3.83-6.95-8.62-2.5-13.21-2.37c0.54,0.61,0.95,1.08,1.77,2.02c-2.31-0.27-4.02-0.47-5.74-0.67
		c-0.07,0.21-0.14,0.42-0.21,0.63c0.83,0.53,1.65,1.05,3.36,2.15c-6.76,0.72-11.08,4.23-14.61,8.47c2.57,1.26,2.09,2.9-2.5,6.86
		c-0.46-6.47-6.39-7.48-10.5-10.15c-1.9-1.23-4.42-1.49-6.71-2.21c-1.52,5.92-3.05,11.87-4.65,18.1c-2-1.29-3.83-2.48-5.66-3.66
		c-0.15,0.19-0.3,0.38-0.46,0.57c2.07,1.84,4.14,3.69,5.95,5.31c-0.44,2.51-0.85,4.86-1.26,7.21c-0.19,0.05-0.37,0.09-0.56,0.14
		c-0.24-1.08-0.47-2.16-0.71-3.23c-0.23-1.04-0.45-2.09-1.01-3.07c0.1,16.19-0.94,32.57,8.95,46.81c-1.25,1.05-1.98,1.66-2.99,2.5
		c-0.73-2.29-1.39-4.33-2.04-6.38c-0.27,0.09-0.54,0.18-0.82,0.27c0.34,1.08,0.68,2.16,1.02,3.25c-0.18,0.09-0.36,0.19-0.54,0.28
		c-2.01-3.29-4.03-6.58-6.04-9.87c-0.42,0.14-0.83,0.28-1.25,0.42c0.45,2.02,0.89,4.05,1.31,5.97c-1.49,0.74-2.95,1.47-4.71,2.34
		c-0.52-0.39-1.29-0.95-2.24-1.65c-0.46,0.53-0.97,1.13-1.77,2.05c-1.06-2.53-1.99-4.76-3.07-7.34c-1.69,7.39,6.27,9.73,7.43,15.34
		c-0.29,0.33-0.57,0.67-0.86,1c-1.62-1.06-3.42-1.91-4.82-3.21c-4.29-3.98-8.42-8.13-13.29-11.73c0.85,2.13,1.91,4.2,2.46,6.4
		c0.29,1.16,0.12,2.93-0.61,3.71c-0.66,0.7-2.36,0.43-4.04,0.64c2.33-4.81-0.7-7.64-2.38-10.8c-1.48-2.79-3.09-5.52-4.23-8.64
		c5.91,0.06,9.47,4.17,14.57,7.52c-0.86-2.64-1.41-4.34-2.36-7.27c2.8,1.66,4.82,2.86,6.85,4.05c0.23-0.08,0.46-0.15,0.7-0.23
		c-0.61-0.94-1.02-2.18-1.88-2.76c-1.32-0.89-3.13-1.09-4.4-2.02c-1.01-0.75-1.5-2.19-2.28-3.27c-0.93-1.29-1.93-2.53-3.04-3.97
		c0.58-0.35,1.15-0.7,0.87-0.53c-3.39-6.54-6.73-12.99-10.08-19.44c2.25-1.02,5.5,4.8,9.38-0.65c-10.35,2.88-9.4-6.73-13.65-10.11
		c2.53-0.52,5.04-1.04,7.54-1.56c-0.11-0.51-0.22-1.02-0.33-1.53c-1.37,0.33-2.75,0.65-4.03,0.95c-0.97-1.12-1.96-2.27-2.95-3.42
		c-0.15,0.12-0.31,0.23-0.46,0.35c0.44,0.79,0.89,1.57,1.33,2.36c-0.19,0.23-0.39,0.47-0.58,0.7c-1.01-0.64-2.24-1.1-2.99-1.96
		c-0.78-0.91-1.4-2.17-1.58-3.35c-0.93-5.86-2.36-11.44-6.38-16.13c-0.92-1.08-0.73-3.09-1.13-4.66c-0.38-1.48-0.85-2.94-1.52-5.22
		c-1.35,2.11-2.09,3.25-2.84,4.41c2.75,0.97,2.75,0.97-2.4,5.66c1.33,0.06,2.36,0.11,3.36,0.16c1.52,2.37-1.77,6.13,2.64,7.89
		c-3.53,1.54-0.85,2.83-0.95,4.3c0.5,6.85,0.99,13.69,1.45,20.02c-0.08-0.1-0.6-0.78-1.13-1.46c-0.28,0.12-0.56,0.24-0.85,0.36
		c3.6,6.31,6.65,12.76,5.42,20.34c-1.52-3.48-3.06-6.96-4.53-10.46c-0.11-0.27,0.36-0.73,0.39-1.11c0.08-1,0.14-2.88,0.09-2.89
		c-3.96-0.31-2.79-4.64-4.92-6.3c-4.74,3.07-6.87,6.9-5.89,11.13c0.77-1.01,1.38-1.81,2.01-2.64c0.6,4.15,1.18,8.15,1.84,12.71
		c-0.79-0.71-1.24-1.11-2.38-2.13c0.85,2.74,1.47,4.74,2.1,6.74c-0.38,0.35-0.75,0.69-1.13,1.04c-0.38-0.86-1.18-1.77-1.08-2.57
		c0.41-3.44-2.1-4.48-4.38-5.72c-2.26-1.23-3.06-3.1-3.73-5.61c-2.28-8.56-5.16-16.97-7.59-25.49c-1.58-5.53-2.91-11.14-4.08-16.77
		c-0.34-1.61,0.04-3.46,0.44-5.11c0.56-2.3,1.57-4.49,2.2-6.77c1.5-5.43,1.4-5.34-3.35-8.25c-1.21-0.74-1.88-2.35-2.91-3.71
		c-0.16,0.22-0.52,0.69-0.33,0.44c-2.97-2.85-5.98-5.73-9.18-8.8c-1.52,4.02-2.31,7.31-3.95,10.1c-1.19,2.02-3.34,3.61-5.33,4.99
		c-3.98,2.75-5.57,6.8-5.88,11.21c-0.29,4.04-1.42,6.49-6.29,5.88c1.37,5.3,0.13,9.7-2.47,14.01c-0.93,1.54-0.33,3.93-0.91,5.78
		c-2.15,6.9-4.85,13.67-3.81,21.13c0.07,0.48,0.15,1.13,0.47,1.39c3.49,2.79,2.86,6.85,3.34,10.7c-1.29,0-2.58,0-4.31,0
		c-0.8-6.19-4.97-10.37-9.84-14.09c4.32-2.8,3.3-7.38-2.21-11.78c1.17,2.87,2.13,5.21,3.08,7.55c-0.17,0.09-0.35,0.18-0.52,0.28
		c-0.94-1.22-1.89-2.43-2.83-3.65c-0.27,0.12-0.54,0.25-0.81,0.37c1.37,3.17,2.73,6.35,4.25,9.88c-0.96-0.27-1.68-0.46-2.59-0.72
		c0.08,3.99,5.05,7.16,1.55,11.7c-0.57-0.79-1.19-1.4-1.53-2.14c-3.01-6.54-6.59-12.9-7.13-20.29c-0.09-1.24,0.72-2.53,0.73-3.8
		c0.02-2.61,0.1-5.29-0.42-7.82c-1.16-5.66-1.26-11.13,1.05-16.56c0.33-0.78-0.23-1.92-0.26-2.9c-0.08-1.96-0.42-3.99-0.05-5.88
		c1.18-6.11,3.28-12.11,3.78-18.26c0.48-5.89-0.52-11.91-0.99-17.86c-0.17-2.16-0.67-4.29-0.31-6.53
		c1.27,6.38,2.54,12.76,3.82,19.21c2.33-3.1,3.69-6.34,3.44-10.6c-0.27-4.53,0.54-9.13,1.05-13.68c0.12-1.06,0.92-2.05,1.41-3.07
		c0.29,0.11,0.59,0.21,0.88,0.32c-0.33,1.4-0.66,2.8-1.08,4.55c0.54,0.23,1.2,0.52,2.34,1c-5.65,7.84-4.68,14.99,3.26,21.17
		c-0.33,0.22-0.67,0.45-1,0.67c-1.5-0.81-3-1.63-5.17-2.81c0.3,2.03,0.54,3.61,0.84,5.67c-1.2-0.53-2-0.89-3.46-1.54
		c0,4.48,0,8.6,0,12.71c-0.4,0.02-0.81,0.04-1.21,0.06c-0.33-3.27-0.67-6.54-1.06-10.4c-3.03,5.57-0.5,15.11,5.86,22.76
		c1.28-1.46,2.52-2.87,4.09-4.67c-1.59,0-2.64,0-3.35,0c-2.84-7.8,0.05-14.05,5.05-20.17c0.78,1.51,1.39,2.67,2.36,4.53
		c2.38-3.99,4.46-7.48,6.54-10.98c0.27,0.03,0.54,0.06,0.81,0.09c-0.45,3.54-0.91,7.08-1.36,10.61c0.23,0.13,0.45,0.27,0.68,0.4
		c0.63-0.9,1.68-1.73,1.83-2.7c0.64-4.06,1.07-8.15,1.43-12.24c0.05-0.56-0.72-1.71-1.03-1.68c-1.14,0.11-2.37,0.38-3.34,0.97
		c-2.21,1.35-4.29,2.93-6.7,4c0.54-2.52,3.88-2.38,3.74-5.85c-0.07-1.64,4.51-2.65,2.85-7.05c-2.16,2.16-3.98,3.96-6.13,6.11
		c0.69-2.74,0.85-4.81,3.87-6.06c1.61-0.67,2.15-3.94,3.17-6.04C66.04,116.77,65.93,116.88,65.93,116.88z M180.31,237.62
		c0.28-0.19,0.57-0.39,0.85-0.58c-1.55-4.17-2.67-8.58-4.75-12.46c-2.43-4.54-3.58-9.34-4.57-14.24c-1-4.98-1.56-10.06-2.69-15
		c-0.32-1.39-2-2.46-3.06-3.68c-0.36,0.19-0.71,0.39-1.07,0.58c0.65,7.76-0.48,15.09-4.72,21.77c0.97-0.44,1.95-0.87,3.07-1.38
		c0.43,1.53,0.8,2.83,1.32,4.67c1.79-4.49,3.32-8.35,4.86-12.21c1.49,7.16-1.79,12.93-4.27,19.19c0.43,0.12,1.31,0.38,2.21,0.64
		c0.73-2.26,1.37-4.28,2.02-6.3c0.21,0.05,0.42,0.1,0.62,0.15c-0.27,1.67-0.55,3.34-0.82,5.01c0.23,0.03,0.46,0.06,0.69,0.08
		c0.61-1.3,1.21-2.61,1.82-3.91c0.36,0.15,0.72,0.3,1.09,0.45c-1.53,4.44-2.88,8.95-4.64,13.3c-1.43,3.54-1.49,4.72,0.41,7.15
		c1.8-3.3,3.78-6.93,5.9-10.83C176.94,233.15,178.62,235.38,180.31,237.62z M47.81,175.94c2.68-2.93,5.38-5.88,8.08-8.83
		c-0.14-0.15-0.27-0.3-0.41-0.44c-1.85,1.08-3.71,2.16-5.05,2.94c-1.37-1.78-2.43-3.14-3.55-4.59
		C42.86,169.74,43.09,172.26,47.81,175.94z M211.02,159.29c1.16-2.22,2.22-4.27,3.29-6.31c-0.45-0.28-0.89-0.56-1.34-0.84
		c-1.6,2.14-3.19,4.29-4.94,6.64c-0.17-2.17-0.34-4.43-0.51-6.7c-0.5-0.03-1.01-0.07-1.51-0.1c-0.29,2.21-1.58,5.72-0.69,6.41
		c3.32,2.57,7.36,4.22,11.12,6.22c0.19-0.33,0.39-0.66,0.58-0.99C215.05,162.19,213.08,160.77,211.02,159.29z M180.76,176.53
		c-2.45-0.87-4.7-1.66-7.04-2.49c0.31,1.1,0.67,2.34,1.22,4.28c-1.79-0.31-3.19-0.55-4.58-0.79c0.72,1.73,2.27,4.06,3.36,3.87
		C176.57,180.89,179.92,180.19,180.76,176.53z M116.95,198.68c5.65-4.15,5.55-9.7,0-12.67
		C116.95,190.17,116.95,194.16,116.95,198.68z M156.63,216.53c0.99-1.63,1.61-2.64,2.22-3.65c-0.21-0.16-0.41-0.32-0.62-0.49
		c-1.66,0.98-3.32,1.96-5.01,2.97c1.71,3.13,3.73,4.13,7.41,1.42c-1.28,2.01-1.85,2.91-2.92,4.6c1.78,0,3.67,0.31,3.81-0.05
		c0.77-2.02,1.13-4.21,1.71-6.72C160.59,215.38,158.88,215.88,156.63,216.53z M74.26,148.39c0.12-1.56,0.51-2.74,0.22-3.71
		c-0.3-0.98-1.14-2.23-2-2.47c-0.6-0.17-2.17,1.01-2.36,1.81c-0.71,2.87-1.01,5.83-1.47,8.76c0.53,0.14,1.06,0.27,1.58,0.41
		c0.71-1.92,1.42-3.84,2.21-5.96C72.8,147.46,73.28,147.77,74.26,148.39z M73.98,128.79c-1.22,0.26-2.19,0.47-2.95,0.64
		c0.13,2.88,0.25,5.48,0.43,9.19c0.85-2.22,1.3-3.39,1.89-4.9c1.46,1.95,2.7,3.6,3.93,5.25c0.25-0.13,0.51-0.26,0.76-0.38
		C76.72,135.43,75.41,132.26,73.98,128.79z M68.07,168.02c1.05-4.88,1.94-9.03,2.92-13.63C64.6,160.04,64.6,160.04,68.07,168.02z
		 M54.35,198.57c0.94-7.78-0.24-10.05-6.39-11.48C50.2,191.11,52.18,194.67,54.35,198.57z M63.93,163.39
		c-3.85,1.12-6.93,7.55-6.38,12.61C59.98,171.19,61.95,167.29,63.93,163.39z M119.33,177.34c-3.49,0.6-6.66,6.65-5.29,9.81
		c1.25-1.33,2.64-2.8,4.4-4.68C118.64,181.31,118.97,179.41,119.33,177.34z M58.88,183.15c-2.59,1.23-4.28,2.03-6.34,3.01
		c1.73,2.14,2.91,3.6,4.65,5.75C57.79,188.77,58.2,186.64,58.88,183.15z M112.73,180.93c2.19-2.3,4.12-4.32,6.5-6.8
		c-1.03-0.46-2.43-1.5-2.85-1.19C113.87,174.78,111.39,176.84,112.73,180.93z M161.97,201.34c-2.34,3.5-4.52,6.75-6.83,10.19
		C160.22,209.62,163.71,206.54,161.97,201.34z M64.33,143.72c-2.26,3.25-4.53,6.51-6.79,9.76c0.37,0.24,0.74,0.47,1.11,0.71
		C62.65,152.04,64.59,148.58,64.33,143.72z M50.86,202.63c-0.4,0.15-0.8,0.31-1.2,0.46c1.82,4.6,3.64,9.2,5.46,13.8
		c0.45-0.17,0.91-0.35,1.36-0.52C54.6,211.79,52.73,207.21,50.86,202.63z M145.99,198.56c3.53,3.45,9.54,3.07,10.72,0.17
		c0.26-0.64-0.09-1.53-0.16-2.31c-0.64,0.11-1.75,0.06-1.85,0.36C153.17,201.07,150.03,199.77,145.99,198.56z M42.99,190.45
		c1.81,3.52,3.23,6.28,4.78,9.27C50.47,196.16,50.03,194.31,42.99,190.45z M39.08,178.64c-0.81,5.38-0.12,7.6,3.04,9.8
		C41.16,185.06,43.05,181.4,39.08,178.64z M121.48,184.43c0.71,4.04,1.24,7.13,1.78,10.22
		C125.73,190.94,125.98,187.66,121.48,184.43z M121.57,175.29c0.43,2.45-1.41,6.49,4.04,5.76
		C123.94,179.02,125.37,175.42,121.57,175.29z M110.67,144.63c-0.51-2.94-0.99-5.71-1.61-9.27
		C105.79,139.93,107.22,142.47,110.67,144.63z M55.38,175.75c-1.15-1.29-1.78-2-2.68-3.01c-1.56,2.04-2.91,3.81-4.25,5.57
		c0.15,0.21,0.31,0.43,0.46,0.64C50.94,177.94,52.98,176.94,55.38,175.75z M125.51,154.46c0.28-4.48-0.57-5.13-5.05-4.25
		C122.49,151.92,124,153.19,125.51,154.46z M200.18,160.83c0.29,0,0.58,0,0.86,0c0.44-2.19,0.88-4.37,1.39-6.88
		c-1.43,0.7-2.79,1.36-4.2,2.06C198.99,157.91,199.58,159.37,200.18,160.83z M94.87,139.67c-0.4,0.35-0.81,0.69-1.21,1.04
		c1.66,2.03,3.33,4.06,4.99,6.08c0.43-0.37,0.87-0.73,1.3-1.1C98.26,143.69,96.56,141.68,94.87,139.67z M193.69,167.36
		c0.64-1.63,1.4-2.75,1.14-3.07c-1.21-1.54-2.69-2.85-4.07-4.25c-0.28,0.28-0.56,0.55-0.84,0.83
		C191,162.74,192.08,164.6,193.69,167.36z M82.24,135.89c-0.57,0.04-1.14,0.08-1.7,0.12c0.51,2.74,1.03,5.47,1.54,8.21
		c0.34-0.04,0.69-0.08,1.03-0.12C82.82,141.36,82.53,138.63,82.24,135.89z M184.07,160.74c0.89-2.31,1.42-3.67,2.24-5.8
		c-2.31,0.79-3.73,1.27-5.65,1.92C181.87,158.24,182.63,159.11,184.07,160.74z M171.15,168.92c-1.44-1.88-2.21-2.88-2.97-3.87
		c-0.44,0.07-0.88,0.14-1.32,0.2c0,1.3,0,2.59,0,3.89C167.98,169.08,169.1,169.02,171.15,168.92z M65.53,150.29
		c-1.32,1.8-2.64,3.61-4.32,5.91C65.05,155.9,65.43,155.39,65.53,150.29z"/>
	<path d="M204.47,196.45c2.83,0.38,5.64,0.86,8.48,1.09c2.06,0.17,4.21-0.34,6.2,0.06c5.33,1.07,9.26-2.08,13.85-3.51
		c5.72-1.78,6.73-6.32,9.6-9.81c0.47-0.58,0.15-1.81-0.18-2.99c-4.15,7.99-10.31,13.08-19.32,14.29c2.58-1.26,5.15-2.53,7.73-3.79
		c-0.06-0.18-0.11-0.36-0.17-0.55c-4.88,1.39-9.75,2.78-14.63,4.17c-0.11-0.28-0.23-0.57-0.34-0.85
		c8.47-3.29,18.24-4.25,23.61-12.34c-6.16,3.18-12.66,6.54-19.16,9.9c-0.14-0.26-0.29-0.52-0.43-0.78c2.82-1.64,5.76-3.1,8.4-4.99
		c1.63-1.17,2.6-3.23,4.19-4.46c1.43-1.11,3.28-1.73,5.01-2.4c1.34-0.52,2.79-0.77,4.43-1.2c-0.44-1.45-0.78-2.55-1.38-4.54
		c2.54,1.98,4.39,3.42,6.22,4.85c0.4-5.36-1.52-7.7-5.74-6.98c-0.13-0.34-0.26-0.67-0.39-1.01c2.17-0.83,4.35-1.66,5.9-2.25
		c0.56,2.29,0.66,3.98,1.4,5.29c0.53,0.93,1.94,1.36,2.96,2.01c0.42-0.33,0.85-0.65,1.27-0.98c-0.81-2.39-1.61-4.79-2.58-7.65
		c1.48-0.65,3.75-1.66,6.02-2.66c0.14,0.24,0.27,0.48,0.41,0.73c-1.4,0.91-2.8,1.83-4.49,2.93c0.55,1.86,1.12,3.81,1.81,6.15
		c2.61-2.8,4.86-5.22,6.84-7.35c0.22,2.12,0.42,4.17,0.63,6.21c0.55,0.09,1.11,0.18,1.66,0.27c0.73-1.49,1.46-2.98,2.32-4.73
		c0.2,0.14,1.23,0.47,1.63,1.17c1.3,2.27,2.39,3.5,4.07,0.28c0.07-0.13,3.03,0.55,3.39,1.4c1.72,3.94,3,8.06,4.51,12.33
		c0.49-0.04,1.64-0.12,3.04-0.23c0.6-1.12,1.34-2.52,2.46-4.61c1.2,4.1,0.06,6.88-1.38,9.82c-1.21,2.47-2.38,5.29-2.39,7.95
		c-0.01,9.12,0.59,18.25,0.81,27.38c0.23,9.9-12.35,17.84-20.87,12.85c-4.46-2.61-8.18-6.48-12.19-9.84
		c-1.3-1.09-2.44-2.36-3.94-3.83c0.04-0.15,0.24-0.85,0.4-1.42c-2.81-2.12-5.53-4.23-8.32-6.25c-2.17-1.57-4.71-2.74-6.59-4.59
		c-2.46-2.43-4.23-5.57-6.71-7.98c-1.18-1.15-3.28-1.61-5.04-1.85c-3.57-0.49-7.22-0.43-10.76-1.01c-1.17-0.19-2.14-1.65-3.2-2.53
		C203.84,197.21,204.16,196.83,204.47,196.45z M275.28,195.48c-0.8-3.34-13.03-15.73-14.49-15.02c0.17,0.8,0.34,1.63,0.64,3.03
		c-2.07-1.1-3.55-1.89-5.03-2.67c-0.31,0.23-0.62,0.47-0.94,0.7c0.7,1.21,1.41,2.42,2.11,3.63c-0.27,0.22-0.53,0.44-0.8,0.66
		c-1.41-1.53-2.82-3.06-4.37-4.75c-1.97,0.86-5.21,1.35-6.83,3.23c-1.51,1.76-1.28,5-1.72,7.1c3.45-0.65,7.13-1.34,10.81-2.03
		c0.13,0.4,0.26,0.81,0.4,1.21c-1.48,1.34-2.97,2.68-4.23,3.81c2.79,0.35,5.56,0.7,9.28,1.17c-1.7-1.45-2.63-2.24-3.9-3.32
		c3.59-0.91,6.01,0.13,8.41,2.01c1.16,0.91,4.08,1.7,4.18,1.5C270.57,192.3,272.77,194.33,275.28,195.48z M270.8,179.13
		c-3.38,5.18-2.93,6.49,2.3,7.59c0-1.75,0-3.48,0-5.42c-1.06,0.6-1.8,1.02-2.87,1.62C270.47,181.32,270.64,180.23,270.8,179.13z
		 M260.99,201.93c-1.64,0.45-2.94,0.81-4.24,1.17c0.09,0.35,0.17,0.7,0.26,1.04c2.34-0.41,4.69-0.82,7.63-1.33
		c-1.63-2.15-2.86-3.78-4.1-5.41c-0.21,0.11-0.43,0.23-0.64,0.34C260.22,198.99,260.55,200.26,260.99,201.93z M273.87,231.79
		c3.94-2.97,3.9-3.09-0.81-5.38C273.36,228.4,273.61,230.1,273.87,231.79z M271.89,226.46c-0.72-1.5-1.24-2.57-1.74-3.61
		c-1.7,1.17-3.1,2.14-5.23,3.61C267.69,226.46,269.5,226.46,271.89,226.46z"/>
	<path d="M68.36,234.37c-0.16-1.33-0.27-2.27-0.41-3.37c-1.04,0-1.98,0-3.56,0c0.49-2.36,0.93-4.45,1.2-5.73
		c5.6-0.76,10.59-1.44,15.9-2.17c0.52,0.78,1.41,2.1,2.41,3.6c0.98-0.72,1.73-1.28,2.24-1.65c3.19,2.33,6.19,4.51,9.28,6.76
		c0-3.96,0-7.47,0-10.99c2.84,4.13,7.7,7.22,6.01,13.7c1.19,0.07,2.28,0.13,3.36,0.2c0.02-0.35,0.04-0.7,0.06-1.05
		c2.07,1.04,4.14,2.08,6.68,3.36c-1.02,1.75-2.28,3.93-3.71,6.39c-1.64-1.11-3.08-2.34-4.72-3.13c-1.48-0.71-2.41-4.05-4.99-1.34
		c-0.11,0.11-2.43-1.5-3.36-2.61c-2.58-3.1-5.39-5.41-9.78-4.43c-0.45,0.1-1.16,0.03-1.43-0.26c-3.53-3.81-7.69-2.74-12.1-1.31
		c0.22,0.77,0.5,1.75,0.92,3.2C71.07,233.81,69.84,234.07,68.36,234.37z"/>
	<path d="M201.92,248.2c2.49-3.95,4.99-7.9,7.48-11.86c-0.18-0.22-0.36-0.45-0.54-0.67c-5.06,3.93-10.13,7.87-15.42,11.98
		c-0.16-4.07,13.42-14.98,20.48-16.28c-1.44,4.04-2.68,7.53-4.15,11.67c2.71-0.59,5.27-1.14,7.83-1.69
		c4.52-0.97,9.01-2.07,13.56-2.84c1.27-0.22,2.71,0.53,4.07,0.83c-0.04,0.44-0.08,0.88-0.12,1.32c-10.78,2.77-21.55,5.55-32.33,8.32
		C202.5,248.72,202.21,248.46,201.92,248.2z"/>
	<path d="M73.26,107.77c-1.63-2.21,0.81-5.99-3.54-6.76c0.03-2.35,0.61-5.3-2.6-7.07c-0.37-0.2,0.04-3.04,0.86-3.98
		c4.09-4.65,5.22-6.67,6.48-13.55c-1.16-0.15-2.29-0.3-3.9-0.52c0,2.75,0.07,5.13-0.04,7.5c-0.03,0.69-0.37,1.71-0.89,1.99
		c-6.07,3.23-3.78,9.02-4.62,14.29c1.02-0.25,1.72-0.43,2.39-0.59c-0.18,1.77-0.36,3.46-0.53,5.08c-1-0.46-2.03-0.94-2.99-1.38
		c0-4.66-0.75-9.71,0.21-14.41c0.93-4.57,3.62-8.79,5.75-13.67c2.75,0,6-0.24,6.79-5.02c0.29-1.73,2.68-3.12,4.11-4.66
		c0.26,0.23,0.51,0.46,0.77,0.69c-1.29,1.45-2.58,2.89-3.87,4.34c0.11,0.13,0.22,0.26,0.33,0.38c0.52-0.31,1.04-0.63,2-1.2
		c-0.31,1.05-0.35,2.26-0.77,2.41c-3.44,1.25-3.07,4.73-4.3,7.22c-0.25,0.51,0.46,1.47,0.66,2.24c0.16,0.62,0.46,1.33,0.31,1.9
		c-1.11,4.11-2.55,8.15-3.4,12.31c-0.35,1.74,0.62,3.72,0.75,5.6C73.37,103.07,73.26,105.24,73.26,107.77z"/>
	<path d="M143.14,237.66c2,0.89,5.44,0.86,4.79,4.11c-2.36,0.42-4.19,0.78-6.05,1.05c-0.96,0.14-2.58,0.47-2.81,0.06
		c-1.77-2.98-4.39-6.05-4.56-9.22c-0.22-4.07,1.38-8.32,2.64-12.35c0.4-1.27,2.23-2.08,3.41-3.1c0.86,1.35,2.38,2.67,2.46,4.07
		C143.32,227.24,143.14,232.22,143.14,237.66z"/>
	<path d="M297.96,159.14c0.66-0.31,1.32-0.63,2.04-0.97c-0.67,8.09-6.62,10.76-16.77,8.71c0.99,0.71,1.7,1.23,2.62,1.89
		c-3.93,2.75-7.52,0.78-11.43-0.05c0.34-1.12,0.67-2.2,1.05-3.46c-2.12-0.47-4.19-0.92-6.26-1.38c-0.01-0.26-0.01-0.52-0.02-0.78
		c0.92-0.4,1.84-0.8,3-1.32c-0.7-1.05-1.35-2.03-1.94-2.91c4.81,0.61,9.69,1.23,14.79,1.88c-3.02,0.36-6.03,0.71-9.03,1.06
		c-0.02,0.18-0.04,0.36-0.07,0.55c1.91,0.15,3.82,0.37,5.73,0.44c1.95,0.08,3.91,0.02,6.05,0.02c-0.46,0.81-0.77,1.37-1.15,2.03
		c7.7,0.13,9.46-0.78,11.5-5.86L297.96,159.14z"/>
	<path d="M113.65,229.69c-0.54,2.21-0.82,3.36-1.11,4.58c-4.98-3.34-5.37-4.9-2.81-10.34c6.61,1.83,7.17,2.24,13.02,9.7
		c1.73-3.26,3.38-6.37,5.03-9.48c0.19,5.55-0.37,10.84-4.17,14.94C120.28,235.94,117.21,233.05,113.65,229.69z"/>
	<path d="M13,195.64c10.31,6.08,17.77,14.47,24.37,24.18c0.69-1.16,1.16-1.93,1.62-2.71c0.31,0.08,0.62,0.15,0.93,0.23
		c-0.76,4.3-1.53,8.61-2.31,13.03c-0.86-0.3-1.08-0.36-1.08-0.37c1.43-5.98-2.45-9.81-5.75-13.74
		C25.07,209.41,19.15,202.74,13,195.64z"/>
	<path d="M207.83,104.29c2.68,5.01,4.99,10.25,8.13,14.95c3.06,4.58,6.96,8.6,11.11,13.63c-5.96-0.74-5.75-8.97-12.32-7.06
		c0.63,0.59,1.12,1.06,1.84,1.74c-1.94,1.52-3.86,3.01-6.3,4.92c1.87,0.27,3.09,0.45,4.32,0.63c0.05,0.27,0.1,0.54,0.16,0.8
		c-4.31,1.13-8.62,2.25-12.93,3.38c-0.17-0.31-0.35-0.62-0.52-0.92c4.66-3.36,10.9-5.19,12.22-11.76c0.08-0.39-0.82-0.98-1.39-1.62
		c1.28,0,2.54,0,3.72,0c-3.01-6.14-5.94-12.13-8.87-18.11C207.27,104.66,207.55,104.48,207.83,104.29z"/>
	<path d="M0.05,227.07c4.15-0.43,8.3-0.89,12.46-1.27c1.74-0.16,3.66,0.18,3.78-2.46c0.02-0.41,0.46-1.14,0.73-1.15
		c5.45-0.27,4.06-4.22,4.07-7.43c0-0.32,0.27-0.64,0.43-0.98c3.08,2.49,3.75,6.15,1.58,8.98c-2.96,3.86-6.1,7.07-11.81,6.13
		c-3.59-0.59-7.36-0.11-11.05-0.11C0.19,228.22,0.12,227.65,0.05,227.07z"/>
	<path d="M153.62,111.68c1.29,3.87,0.69,6.96-1.92,10.15c-3.68,4.5-1.7,10.08-1.29,15.21c0.21,2.69,1.24,5.31,1.97,8.28
		c-4.44-3.94-6.17-7.85-5.3-12.92c0.71-4.16,0.99-8.89,3.22-12.16C152.2,117.47,153.5,115,153.62,111.68z"/>
	<path d="M274.15,151.96c-7.05,0.36-14.13,0.4-21.14,1.19c-5.48,0.62-9.78-1.73-13.98-4.38c-1.1-0.69-1.14-3.05-1.64-4.55
		c8.9,6.75,19.14,7.58,29.85,6.7c2.33-0.19,4.73,0.5,7.1,0.79C274.28,151.79,274.22,151.88,274.15,151.96z"/>
	<path d="M112.92,49.77c1.23-0.85,1.77-1.21,2.75-1.89c-3.27-0.38-5.98-0.7-8.68-1.01c0.07-0.38,0.13-0.77,0.2-1.15
		c3.97,0.74,8.04,1.15,11.88,2.3c5.01,1.51,9.86,3.57,14.74,5.49c2.31,0.91,4.53,2.07,7.36,3.38c-6.85-1.16-12.87-2.18-19.22-3.25
		c0.82-0.5,1.52-0.92,3.01-1.82C120.69,51.1,117.22,50.51,112.92,49.77z"/>
	<path d="M48.08,91.94c2.49,5.56-3.68,9.89,0.58,14.84c-1.26-0.38-2.03-0.61-3.14-0.94c-0.49,2.74-0.94,5.33-1.4,7.91
		c0.22,0.07,0.44,0.14,0.66,0.21c0.36-0.46,0.71-0.93,1.65-2.14c-0.36,5.3-0.66,9.82-0.96,14.21c-3.47-8.15-3.44-16.32,0.17-24.56
		C46.81,98.81,47.13,95.76,48.08,91.94z"/>
	<path d="M143.23,56.21c7.11,4.01,14.22,8.01,22.33,12.58c-3.28,0.45-5.48,0.75-7.69,1.05c-0.06-0.2-0.12-0.4-0.17-0.6
		c0.85-0.55,1.7-1.1,2.55-1.65c-7.68-0.86-11.5-7.45-17.5-10.57C142.9,56.76,143.07,56.48,143.23,56.21z"/>
	<path d="M52.72,70.42c5.18-5.82,8.93-13.07,15.44-17.7c0.33,0.33,0.66,0.67,0.99,1c-1,0.75-2.01,1.47-3,2.24
		c-0.88,0.68-2.4,1.33-2.48,2.12C62.93,64.74,55.48,65.58,52.72,70.42z"/>
	<path d="M174.54,105.04c-1.34,0.38-2.75,0.78-5.02,1.43c1.67,1.23,2.35,1.73,3.24,2.39c-0.61,0.37-1,0.75-1.17,0.68
		c-1-0.45-1.97-0.99-2.91-1.56c-0.08-0.05,0.04-0.47,0.09-0.71c0.5-2.52,8.67-9.04,11.59-9.23
		C178.37,100.43,176.37,102.84,174.54,105.04z"/>
	<path d="M83,81.21c-6.38,3.16-3.88,10.45-7.25,15.27C73.99,90.25,77.19,83.11,83,81.21z"/>
	<path d="M173.89,133.54c2.05-6.32,3.91-12.74,9.03-17.55c-2.61,6.04-5.22,12.08-7.83,18.12
		C174.69,133.92,174.29,133.73,173.89,133.54z"/>
	<path d="M85.39,118.61c-2.59-7.21,1.06-18.84,6.77-22.75C87.58,102.4,84.73,109.49,85.39,118.61z"/>
	<path d="M50.29,110.42c1.67-6.19,3.34-12.38,5-18.57c0.47,0.13,0.95,0.25,1.42,0.38c-1.8,6.15-3.59,12.31-5.39,18.46
		C50.99,110.6,50.64,110.51,50.29,110.42z"/>
	<path d="M139.27,133.37c1.55,3.79,3.1,7.58,4.75,11.59c-3-0.45-4.53-3.42-6.03-10.92C138.41,133.81,138.84,133.59,139.27,133.37z"
		/>
	<path d="M86.17,96.7c-1.47,6.05-2.93,12.1-4.34,17.9c-2.15-6.58,2.35-12.01,3.46-18.16C85.58,96.52,85.87,96.61,86.17,96.7z"/>
	<path d="M223.92,247.6c0.07,2.08,4.54,2.36,1.99,5.18c-0.66,0.73-3.11-0.17-4.74-0.32c0.38-1.66,0.77-3.31,1.15-4.97
		C222.85,247.52,223.39,247.56,223.92,247.6z"/>
	<path d="M71.78,52.12c4.28-4.14,9.32-6.46,15.31-6.47C81.99,47.8,76.88,49.96,71.78,52.12z"/>
	<path d="M66.04,116.77c-1.92,1.1-3.85,2.2-5.84,3.34c-0.58-0.78-1.49-2.01-2.4-3.23c-0.37,0.09-0.74,0.17-1.11,0.26
		c1-1.91,1.99-3.83,2.99-5.74c0.2,0.06,0.4,0.12,0.59,0.18c0,1.83,0,3.66,0,6.18c1.56-0.76,2.57-1.45,3.68-1.71
		c0.56-0.13,1.3,0.54,1.97,0.84C65.93,116.88,66.04,116.77,66.04,116.77z"/>
	<path d="M236.3,141.79c-3.52-1.29-6.92-2.72-7.14-7.67c2.61,2.27,5.21,4.53,7.82,6.8C236.74,141.21,236.52,141.5,236.3,141.79z"/>
	<path d="M287.02,157.19c-3.55-0.69-7.1-1.38-10.65-2.07c0.1-0.54,0.2-1.08,0.3-1.62c3.5,0.79,6.99,1.58,10.49,2.37
		C287.12,156.31,287.07,156.75,287.02,157.19z"/>
	<path d="M175.16,68.13c4.18-0.42,8.05,0.79,10.95,4.7C182.4,71.24,178.69,69.65,175.16,68.13z"/>
	<path d="M203.69,114.86c-1.97,0.13-3.64-0.04-5.1,0.44c-1.26,0.41-2.27,1.58-3.65,2.06C198,112.77,200.83,112.02,203.69,114.86z"/>
	<path d="M226.15,157.01c1.72-0.29,3.45-0.58,5.17-0.88c-0.14,0.95-0.08,2.6-0.47,2.71c-1.44,0.42-3.02,0.33-4.56,0.43
		C226.25,158.52,226.2,157.77,226.15,157.01z"/>
	<path d="M77.52,98.03c2.16-3.76,4.31-7.51,6.47-11.27c0.35,0.2,0.71,0.41,1.06,0.61c-2.19,3.74-4.38,7.47-6.56,11.21
		C78.16,98.4,77.84,98.21,77.52,98.03z"/>
	<path d="M204.65,98.42c-2.21-3.22-4.42-6.44-6.63-9.65c0.34-0.24,0.68-0.49,1.02-0.73c2.24,3.22,4.49,6.44,6.73,9.65
		C205.39,97.93,205.02,98.17,204.65,98.42z"/>
	<path d="M92.82,46.38c3.73-0.41,7.47-0.82,11.2-1.23c0.04,0.49,0.08,0.98,0.11,1.47c-3.75,0.21-7.5,0.41-11.25,0.62
		C92.86,46.95,92.84,46.66,92.82,46.38z"/>
	<path d="M123.31,111.64c1.81-3.04,3.61-6.09,5.42-9.13c0.43,0.26,0.85,0.52,1.28,0.77c-1.92,2.97-3.84,5.95-5.76,8.92
		C123.93,112.02,123.62,111.83,123.31,111.64z"/>
	<path d="M142.51,122.44c-0.39,4.55-0.39,4.55-4.45,5.79c1.44-2.55,2.46-4.36,3.48-6.17C141.86,122.18,142.19,122.31,142.51,122.44z
		"/>
	<path d="M86.75,92.19c1.29-2.65,2.57-5.3,3.86-7.96c0.46,0.23,0.91,0.47,1.37,0.7c-1.37,2.6-2.75,5.21-4.12,7.81
		C87.49,92.56,87.12,92.37,86.75,92.19z"/>
	<path d="M298.08,159.01c-2.89,0.18-5.78,0.35-8.66,0.53c-0.03-0.41-0.06-0.83-0.09-1.24c2.29-0.29,4.58-0.71,6.87-0.8
		c0.57-0.02,1.17,1.06,1.76,1.63C297.96,159.14,298.08,159.01,298.08,159.01z"/>
	<path d="M77.28,109.46c-0.1-2.77-1.39-5.7,1.49-8.11c-0.19,2.71-0.38,5.42-0.57,8.14C77.9,109.48,77.59,109.47,77.28,109.46z"/>
	<path class="st0" d="M180.31,237.62c-1.68-2.24-3.36-4.48-5.72-7.61c-2.13,3.9-4.1,7.52-5.9,10.83c-1.9-2.43-1.84-3.61-0.41-7.15
		c1.76-4.35,3.11-8.86,4.64-13.3c-0.36-0.15-0.72-0.3-1.09-0.45c-0.61,1.3-1.21,2.61-1.82,3.91c-0.23-0.03-0.46-0.06-0.69-0.08
		c0.27-1.67,0.55-3.34,0.82-5.01c-0.21-0.05-0.42-0.1-0.62-0.15c-0.65,2.02-1.3,4.04-2.02,6.3c-0.9-0.26-1.78-0.51-2.21-0.64
		c2.48-6.26,5.76-12.04,4.27-19.19c-1.54,3.86-3.07,7.72-4.86,12.21c-0.52-1.84-0.89-3.14-1.32-4.67c-1.13,0.5-2.1,0.94-3.07,1.38
		c4.24-6.67,5.37-14.01,4.72-21.77c0.36-0.19,0.71-0.39,1.07-0.58c1.06,1.22,2.74,2.29,3.06,3.68c1.14,4.95,1.69,10.02,2.69,15
		c0.99,4.9,2.14,9.71,4.57,14.24c2.08,3.89,3.2,8.29,4.75,12.46C180.87,237.24,180.59,237.43,180.31,237.62z"/>
	<path class="st0" d="M47.81,175.94c-4.72-3.68-4.95-6.2-0.94-10.92c1.12,1.45,2.18,2.82,3.55,4.59c1.34-0.78,3.2-1.86,5.05-2.94
		c0.14,0.15,0.27,0.3,0.41,0.44C53.19,170.07,50.49,173.02,47.81,175.94z"/>
	<path class="st0" d="M211.02,159.29c2.06,1.49,4.03,2.9,5.99,4.32c-0.19,0.33-0.39,0.66-0.58,0.99c-3.77-2-7.8-3.64-11.12-6.22
		c-0.89-0.69,0.4-4.2,0.69-6.41c0.5,0.03,1.01,0.07,1.51,0.1c0.17,2.26,0.35,4.53,0.51,6.7c1.75-2.35,3.35-4.49,4.94-6.64
		c0.45,0.28,0.89,0.56,1.34,0.84C213.25,155.02,212.18,157.06,211.02,159.29z"/>
	<path class="st0" d="M180.76,176.53c-0.84,3.65-4.2,4.35-7.04,4.87c-1.09,0.2-2.64-2.14-3.36-3.87c1.4,0.24,2.79,0.48,4.58,0.79
		c-0.55-1.94-0.9-3.18-1.22-4.28C176.07,174.87,178.31,175.67,180.76,176.53z"/>
	<path class="st0" d="M116.95,198.68c0-4.52,0-8.51,0-12.67C122.5,188.98,122.6,194.53,116.95,198.68z"/>
	<path class="st0" d="M156.63,216.53c2.25-0.66,3.96-1.16,6.61-1.93c-0.59,2.51-0.94,4.7-1.71,6.72c-0.14,0.36-2.03,0.05-3.81,0.05
		c1.07-1.68,1.64-2.58,2.92-4.6c-3.68,2.71-5.7,1.71-7.41-1.42c1.69-1,3.35-1.98,5.01-2.97c0.21,0.16,0.41,0.32,0.62,0.49
		C158.23,213.9,157.62,214.91,156.63,216.53z"/>
	<path class="st0" d="M74.26,148.39c-0.99-0.63-1.46-0.93-1.82-1.16c-0.79,2.12-1.5,4.04-2.21,5.96c-0.53-0.14-1.06-0.27-1.58-0.41
		c0.46-2.93,0.76-5.89,1.47-8.76c0.2-0.81,1.76-1.99,2.36-1.81c0.86,0.24,1.7,1.49,2,2.47C74.77,145.65,74.39,146.83,74.26,148.39z"
		/>
	<path class="st0" d="M73.98,128.79c1.43,3.47,2.74,6.63,4.05,9.8c-0.25,0.13-0.51,0.26-0.76,0.38c-1.23-1.65-2.47-3.3-3.93-5.25
		c-0.58,1.51-1.03,2.68-1.89,4.9c-0.17-3.72-0.29-6.32-0.43-9.19C71.79,129.27,72.76,129.06,73.98,128.79z"/>
	<path class="st0" d="M68.07,168.02c-3.47-7.98-3.47-7.98,2.92-13.63C70.01,158.99,69.12,163.14,68.07,168.02z"/>
	<path class="st0" d="M54.35,198.57c-2.17-3.9-4.15-7.46-6.39-11.48C54.11,188.52,55.29,190.78,54.35,198.57z"/>
	<path class="st0" d="M63.93,163.39c-1.97,3.9-3.95,7.81-6.38,12.61C57,170.93,60.08,164.5,63.93,163.39z"/>
	<path class="st0" d="M119.33,177.34c-0.36,2.08-0.69,3.98-0.88,5.13c-1.76,1.88-3.15,3.35-4.4,4.68
		C112.66,183.99,115.83,177.94,119.33,177.34z"/>
	<path class="st0" d="M58.88,183.15c-0.67,3.49-1.09,5.62-1.69,8.75c-1.74-2.15-2.92-3.61-4.65-5.75
		C54.6,185.18,56.29,184.38,58.88,183.15z"/>
	<path class="st0" d="M112.73,180.93c-1.34-4.08,1.14-6.15,3.65-8c0.41-0.3,1.81,0.74,2.85,1.19
		C116.85,176.61,114.92,178.63,112.73,180.93z"/>
	<path class="st0" d="M161.97,201.34c1.74,5.2-1.75,8.28-6.83,10.19C157.45,208.1,159.63,204.84,161.97,201.34z"/>
	<path class="st0" d="M64.33,143.72c0.26,4.86-1.68,8.32-5.69,10.47c-0.37-0.24-0.74-0.47-1.11-0.71
		C59.8,150.23,62.07,146.97,64.33,143.72z"/>
	<path class="st0" d="M50.86,202.63c1.87,4.58,3.75,9.15,5.62,13.73c-0.45,0.17-0.91,0.35-1.36,0.52c-1.82-4.6-3.64-9.2-5.46-13.8
		C50.05,202.94,50.45,202.78,50.86,202.63z"/>
	<path class="st0" d="M145.99,198.56c4.04,1.21,7.18,2.51,8.7-1.77c0.11-0.3,1.21-0.25,1.85-0.36c0.07,0.78,0.43,1.67,0.16,2.31
		C155.53,201.64,149.53,202.01,145.99,198.56z"/>
	<path class="st0" d="M42.99,190.45c7.04,3.86,7.48,5.71,4.78,9.27C46.22,196.73,44.8,193.97,42.99,190.45z"/>
	<path class="st0" d="M39.08,178.64c3.97,2.75,2.07,6.42,3.04,9.8C38.96,186.24,38.27,184.02,39.08,178.64z"/>
	<path class="st0" d="M121.48,184.43c4.49,3.23,4.25,6.51,1.78,10.22C122.73,191.56,122.19,188.47,121.48,184.43z"/>
	<path class="st0" d="M121.57,175.29c3.81,0.13,2.38,3.72,4.04,5.76C120.16,181.79,122,177.74,121.57,175.29z"/>
	<path class="st0" d="M110.67,144.63c-3.45-2.16-4.88-4.7-1.61-9.27C109.68,138.93,110.16,141.69,110.67,144.63z"/>
	<path class="st0" d="M55.38,175.75c-2.41,1.19-4.44,2.19-6.48,3.2c-0.15-0.21-0.31-0.43-0.46-0.64c1.35-1.76,2.69-3.53,4.25-5.57
		C53.6,173.75,54.23,174.46,55.38,175.75z"/>
	<path class="st0" d="M125.51,154.46c-1.51-1.27-3.02-2.54-5.05-4.25C124.94,149.34,125.79,149.99,125.51,154.46z"/>
	<path class="st0" d="M200.18,160.83c-0.59-1.46-1.19-2.93-1.95-4.82c1.42-0.69,2.77-1.36,4.2-2.06c-0.51,2.51-0.95,4.7-1.39,6.88
		C200.75,160.84,200.46,160.84,200.18,160.83z"/>
	<path class="st0" d="M94.87,139.67c1.69,2.01,3.39,4.02,5.08,6.03c-0.43,0.37-0.87,0.73-1.3,1.1c-1.66-2.03-3.33-4.06-4.99-6.08
		C94.06,140.36,94.46,140.02,94.87,139.67z"/>
	<path class="st0" d="M193.69,167.36c-1.61-2.77-2.69-4.63-3.77-6.49c0.28-0.28,0.56-0.55,0.84-0.83c1.38,1.4,2.87,2.71,4.07,4.25
		C195.09,164.62,194.33,165.74,193.69,167.36z"/>
	<path class="st0" d="M82.24,135.89c0.29,2.73,0.58,5.47,0.87,8.2c-0.34,0.04-0.69,0.08-1.03,0.12c-0.51-2.74-1.03-5.47-1.54-8.21
		C81.11,135.97,81.67,135.93,82.24,135.89z"/>
	<path class="st0" d="M184.07,160.74c-1.44-1.64-2.2-2.5-3.4-3.88c1.92-0.65,3.33-1.13,5.65-1.92
		C185.49,157.08,184.96,158.44,184.07,160.74z"/>
	<path class="st0" d="M171.15,168.92c-2.05,0.1-3.17,0.16-4.29,0.22c0-1.3,0-2.59,0-3.89c0.44-0.07,0.88-0.14,1.32-0.2
		C168.94,166.04,169.71,167.03,171.15,168.92z"/>
	<path class="st0" d="M65.53,150.29c-0.1,5.1-0.48,5.62-4.32,5.91C62.89,153.9,64.21,152.09,65.53,150.29z"/>
	<path class="st0" d="M275.28,195.48c-2.52-1.14-4.71-3.17-6.48,0.26c-0.1,0.2-3.02-0.59-4.18-1.5c-2.4-1.88-4.81-2.91-8.41-2.01
		c1.27,1.08,2.2,1.87,3.9,3.32c-3.72-0.47-6.49-0.82-9.28-1.17c1.26-1.14,2.74-2.48,4.23-3.81c-0.13-0.4-0.26-0.81-0.4-1.21
		c-3.68,0.69-7.36,1.38-10.81,2.03c0.44-2.1,0.21-5.34,1.72-7.1c1.61-1.88,4.85-2.37,6.83-3.23c1.55,1.68,2.96,3.21,4.37,4.75
		c0.27-0.22,0.53-0.44,0.8-0.66c-0.7-1.21-1.41-2.42-2.11-3.63c0.31-0.23,0.62-0.47,0.94-0.7c1.48,0.79,2.96,1.57,5.03,2.67
		c-0.29-1.41-0.47-2.23-0.64-3.03C262.25,179.75,274.48,192.13,275.28,195.48z M256.95,187.29c0.01,0.36,0.03,0.71,0.04,1.07
		c3.96,1.55,7.92,3.11,11.88,4.66c-1.81-4.96-1.77-5.08-7.86-6.89C259.88,185.79,258.32,186.86,256.95,187.29z"/>
	<path class="st0" d="M270.8,179.13c-0.16,1.1-0.33,2.19-0.57,3.8c1.07-0.6,1.8-1.02,2.87-1.62c0,1.94,0,3.67,0,5.42
		C267.87,185.62,267.42,184.32,270.8,179.13z"/>
	<path class="st0" d="M260.99,201.93c-0.44-1.67-0.77-2.93-1.1-4.19c0.21-0.11,0.43-0.23,0.64-0.34c1.23,1.63,2.47,3.26,4.1,5.41
		c-2.94,0.51-5.29,0.92-7.63,1.33c-0.09-0.35-0.17-0.7-0.26-1.04C258.05,202.74,259.35,202.38,260.99,201.93z"/>
	<path class="st0" d="M273.87,231.79c-0.25-1.69-0.51-3.39-0.81-5.38C277.77,228.7,277.81,228.82,273.87,231.79z"/>
	<path class="st0" d="M271.89,226.46c-2.39,0-4.2,0-6.97,0c2.13-1.47,3.53-2.44,5.23-3.61
		C270.65,223.89,271.16,224.96,271.89,226.46z"/>
	<path d="M256.95,187.29c1.37-0.42,2.92-1.5,4.06-1.16c6.09,1.81,6.06,1.93,7.86,6.89c-3.96-1.55-7.92-3.11-11.88-4.66
		C256.98,188,256.97,187.65,256.95,187.29z"/>
</g>
</svg>
