<svg version="1.1" id="Layer_1" xmlns="http://www.w3.org/2000/svg" xmlns:xlink="http://www.w3.org/1999/xlink"
  viewBox="0 0 196 30" style="enable-background:new 0 0 196 30;" xml:space="preserve">
    <g>
      <path fill="currentColor" d="M52.1,29.5c7,0,12.8-4.4,12.8-13l0-15.6l-4.6,0l0,15.6c0,6.1-3.6,8.4-8.2,8.4c-4.8,0-8.4-2.4-8.4-8.4l0-15.6l-4.6,0l0,15.6
        C39.1,25.1,44.9,29.5,52.1,29.5z"/>
      <path fill="currentColor" d="M84.1,29.5c6.3,0,13-2,13-8.6c0-5.1-3.8-6.8-8.8-7.6l-6.6-1.1c-0.8-0.1-5.1-0.7-5.1-3.3s3.2-4,7.3-4c4.4,0,8.3,1.8,8.3,5.2
        l4.6,0c0-6.7-5.6-9.5-13-9.5c-7.1,0-12.4,2.4-12.4,8.2c0,4.6,3.2,6.5,8.1,7.4l6.9,1.3C89.4,18,92,19,92,21c0,2.7-3.4,4.1-7.9,4.1
        c-4.9,0-8.6-1.8-8.6-5.5l-4.8,0C70.7,26.4,76.6,29.5,84.1,29.5z"/>
      <path fill="currentColor" d="M139,29.1l4.6,0V17.1h1.4c7.8,0,12.1,5.5,12.7,12.1h4.9c-0.4-6.1-3.5-11.8-9-14.8c5.5-2.9,8.6-7.5,9-13.4l-4.9,0
        c-0.6,6.5-5,11.1-12.7,11.1l-1.5,0V1l-4.5,0L139,29.1z"/>
      <path fill="currentColor" d="M0.4,15.4c0,9,6.7,14,16.1,14c5,0,8.2-1.4,10.7-3.5v3.1h4.4l0-14.6v0l-16.1,0l0,3.8l11.4,0c-1.1,5.3-4,7.1-10.5,7.1
        C10.2,25.4,5,22.2,5,15.6l0-1.1c0-6.6,5.5-9.7,11.5-9.7c5.5,0,9.3,1.4,10.4,6.4l4.6,0c-1.4-7.4-7.1-10.7-15-10.7
        c-9.1,0-16.1,5-16.1,14.1L0.4,15.4z"/>
      <polygon fill="currentColor" points="104.2,29.1 108.8,29.1 108.8,17.2 126.2,17.2 126.2,29.1 130.8,29.1 130.8,1 126.2,1 126.2,12.6 108.8,12.6 
        108.8,1 104.2,1 	"/>
      <path fill="currentColor" d="M182.8,0.6c-7.2,0-13,4.4-13,13v15.6h4.6l0-10.5l16.6,0v10.5l4.6,0V13.6C195.6,5,189.8,0.6,182.8,0.6z M174.5,14
        c0.5-7.2,3.5-9.3,8.3-9.3c4.6,0,7.7,2,8.2,9.3L174.5,14z"/>
    </g>
</svg>